<svg version="1.1" xmlns="http://www.w3.org/2000/svg" xmlns:xlink="http://www.w3.org/1999/xlink" width="125.47581" height="184.53717" viewBox="0,0,125.47581,184.53717"><g transform="translate(-177.4433,-88.17654)"><g data-paper-data="{&quot;isPaintingLayer&quot;:true}" stroke="none" stroke-linecap="butt" stroke-linejoin="miter" stroke-miterlimit="10" stroke-dasharray="" stroke-dashoffset="0" style="mix-blend-mode: normal"><g><path d="M218.75,99.921l5.4,-4.989l7.173,-4.091l7.927,-1.597l8.4,0.998l8.224,5.987l7.576,7.883l3.914,6.287l4.488,10.676l2.998,16.964l3.1,33.228l-4.8,3.093l-9.2,3.992l-11.76,1.197l-18.459,0.897l-11.781,-1.995l-11.141,-4.39l-4.059,-3.792v-19.258l0.5,-16.864l2.5,-13.722l5.4,-15.016l3.6,-5.488" fill="#c1b4d8" fill-rule="evenodd" stroke-width="1"/><path d="M207.35,172.364l4.4,2.694l5.1,2.096l3.9,1.097l5.8,1.098l4.773,0.689l4.027,0.408l4,0.399l9.7,-0.399h3.14l6.16,-0.997l5.9,-0.699l5.293,-2.195l4.807,-3.293l3.6,-1.995l0.6,8.082l-0.6,4.689l-7.253,5.289l-10.547,3.193l-9.9,0.798l-7.475,-0.698l-6.825,0.399l-11.5,-2.195l-9.1,-2.495l-6.4,-1.596l-1.6,-14.369" fill="#897ab8" fill-rule="evenodd" stroke-width="1"/><path d="M238.425,200.329h1.425h8.775l1.625,0.523l4.375,3.442l4.425,6.886l0.9,8.782l-2.025,9.404l-2.25,11.001l-5.1,13.246l-6.025,14.145l-0.875,2.02l-0.725,-0.524l-0.6,-2.544l-3.5,-7.484l-3.425,-8.606l-4.575,-13.247l-2.85,-13.62l0.525,-9.804l2.175,-7.035l3.3,-3.964l4.425,-2.621" fill="#f7ec1e" fill-rule="evenodd" stroke-width="1"/><path d="M240.75,211.928l1.125,-0.598l5.175,0.598l1.725,1.797l0.975,4.14l-1.8,10.678l-3.975,12.498h-1.025l-3.1,-9.879l-2.1,-9.505v-5.612l1.1,-3.069l1.9,-1.048" fill="#fbf5a8" fill-rule="evenodd" stroke-width="1"/><path d="M246.35,153.304l1.3,0.799l1.4,2.494l1.2,5.189v9.081l-1.3,14.668l-1.6,16.763l-3.6,16.864l-2.3,-10.477l-1.3,-10.178l-0.6,-14.269l-0.7,-16.165l0.6,-9.779l1.7,-3.493l2.8,-1.497h2.4" fill="#ef463c" fill-rule="evenodd" stroke-width="1"/><path d="M206.051,153.304l0.5,9.58l0.9,8.681l1.5,14.668l-2.8,1.397l-3.1,3.193l-1.1,7.484l0.4,9.779l1.7,8.082l-0.4,1.697l-2.9,-3.377l-7.6,-12.588l-7.3,-16.066l-2.501,-10.877l-0.6,-8.581c0,0 2.301,-10.677 2.501,-10.976c0.199,-0.299 4.099,-5.288 4.099,-5.288l6,-2.734h7.001l3.799,1.636z" fill="#ef463c" fill-rule="evenodd" stroke-width="1"/><path d="M276.25,150.311l5.592,-2.395l6.608,-0.538l6.9,2.933l4.9,5.987l2.2,11.276l-2.2,11.973l-5.1,15.267l-5.1,9.48v-5.588l-1.7,-5.787l-2.7,-4.79l-3.808,-2.894l-2.792,-1.197l-0.7,-8.482l-0.8,-10.976l-1.3,-14.269" fill="#ef463c" fill-rule="evenodd" stroke-width="1"/><path d="M249.35,96.228c-0.3,0.1 -5.8,1.696 -5.8,1.696l-7.8,0.599l-7.819,-1.497l-3.481,-1.995l4.75,-3.393l8.55,-2.096l9.4,0.898l5.8,3.293c0,0 -3.3,2.395 -3.6,2.495z" fill="#ef463c" fill-rule="evenodd" stroke-width="1"/><path d="M302.505,172.702c-0.356,2.359 -1.103,4.63 -1.473,6.97c-0.329,2.08 -1.153,4.014 -1.517,6.074c-0.126,0.716 -0.468,1.397 -0.747,2.081c-0.861,2.114 -1.712,4.232 -2.621,6.326c-0.6,1.384 -1.352,2.704 -1.93,4.096c-0.776,1.867 -1.443,3.779 -2.172,5.665c-0.15,0.388 -0.323,0.783 -0.563,1.119c-0.634,0.886 -0.921,1.882 -1.152,2.931c-0.22,1.002 -0.528,1.973 -0.575,3.018c-0.02,0.436 -0.337,0.895 -0.616,1.273c-0.502,0.685 -1.199,0.2 -1.798,0.165c-0.42,-0.025 -0.849,-0.633 -0.802,-1.059c0.044,-0.401 0.14,-0.833 0.343,-1.173c0.849,-1.417 1.595,-2.898 1.933,-4.499c0.29,-1.365 0.494,-2.756 0.51,-4.194c0.02,-1.678 -0.296,-3.222 -0.713,-4.819c-0.676,-2.585 -1.699,-5.001 -3.251,-7.148c-1.251,-1.729 -2.813,-3.167 -5.001,-3.711c-0.557,-0.139 -1.091,-0.366 -1.751,-0.591c-0.55,0.428 -1.285,0.828 -1.78,1.426c-0.712,0.859 -1.679,1.31 -2.58,1.829c-1.469,0.849 -3.018,1.571 -4.577,2.247c-0.903,0.394 -1.891,0.592 -2.839,0.88c-0.798,0.243 -1.589,0.516 -2.394,0.731c-1.711,0.455 -3.431,0.879 -5.145,1.324c-0.176,0.046 -0.39,0.1 -0.5,0.226c-0.42,0.481 -0.868,0.43 -1.392,0.2c-0.219,-0.097 -0.52,-0.125 -0.751,-0.063c-1.926,0.52 -3.897,0.581 -5.871,0.626c-0.371,0.009 -0.743,0.021 -1.113,0.045c-0.556,0.035 -1.057,0.615 -1.089,1.27c-0.027,0.546 -0.041,1.093 -0.049,1.64c-0.008,0.543 -0.002,1.088 -0.002,1.677c0.159,0.033 0.311,0.108 0.448,0.085c0.631,-0.103 1.098,0.016 1.623,0.501c0.95,0.876 2.097,1.536 3.096,2.365c1.154,0.958 2.37,1.861 3.152,3.203c0.581,0.997 1.325,1.904 1.854,2.923c0.454,0.874 0.748,1.84 1.036,2.788c0.278,0.917 0.529,1.854 0.663,2.799c0.156,1.106 0.185,2.23 0.245,3.347c0.052,0.964 0.127,1.933 0.089,2.896c-0.034,0.828 -0.202,1.652 -0.332,2.474c-0.192,1.207 -0.378,2.416 -0.611,3.615c-0.207,1.071 -0.483,2.127 -0.714,3.194c-0.204,0.94 -0.354,1.893 -0.591,2.825c-0.388,1.527 -0.924,3.021 -1.225,4.562c-0.633,3.235 -1.866,6.27 -3.018,9.327c-1.189,3.154 -2.489,6.266 -3.763,9.386c-0.971,2.377 -2.02,4.723 -2.957,7.112c-0.716,1.824 -1.308,3.696 -1.962,5.544c-0.363,1.024 -0.745,2.041 -1.111,3.063c-0.065,0.18 -0.121,0.371 -0.135,0.559c-0.034,0.448 -0.117,0.844 -0.68,0.861c-0.627,0.02 -1.193,-0.381 -1.29,-0.933c-0.122,-0.682 -0.261,-1.366 -0.313,-2.056c-0.067,-0.886 -0.359,-1.665 -0.803,-2.427c-0.234,-0.403 -0.364,-0.908 -0.398,-1.377c-0.056,-0.801 -0.32,-1.509 -0.744,-2.165c-0.879,-1.363 -1.311,-2.904 -1.833,-4.413c-0.282,-0.816 -0.681,-1.592 -0.957,-2.41c-0.72,-2.133 -1.868,-4.071 -2.751,-6.129c-0.393,-0.914 -0.763,-1.837 -1.148,-2.754c-0.432,-1.033 -0.922,-2.045 -1.289,-3.099c-0.398,-1.14 -0.589,-2.359 -1.044,-3.472c-0.477,-1.168 -0.612,-2.407 -0.981,-3.592c-0.201,-0.643 -0.306,-1.315 -0.494,-1.963c-0.195,-0.676 -0.489,-1.326 -0.648,-2.009c-0.291,-1.248 -0.504,-2.513 -0.768,-3.767c-0.085,-0.405 -0.206,-0.808 -0.357,-1.194c-0.409,-1.041 -0.395,-2.137 -0.454,-3.223c-0.054,-0.992 0.031,-1.975 -0.197,-2.976c-0.155,-0.682 0.101,-1.45 0.134,-2.182c0.019,-0.433 -0.052,-0.869 -0.055,-1.304c-0.003,-0.51 0.021,-1.021 0.037,-1.532c0.034,-1.024 0.06,-2.051 0.112,-3.075c0.015,-0.278 0.102,-0.556 0.178,-0.829c0.328,-1.171 0.648,-2.345 1.002,-3.509c0.425,-1.399 0.881,-2.79 1.327,-4.183c0.039,-0.123 0.073,-0.257 0.15,-0.354c0.772,-0.982 1.509,-1.996 2.347,-2.919c0.681,-0.75 1.45,-1.435 2.25,-2.06c0.465,-0.362 1.061,-0.566 1.611,-0.807c0.701,-0.308 1.412,-0.584 2.066,-0.85c0.31,-0.002 0.619,-0.008 0.926,-0.048c0.205,-0.026 0.323,-0.139 0.347,-0.346c0.039,-0.337 -0.005,-0.653 -0.116,-0.963c0.04,0.005 0.073,0.007 0.116,0.013c-0.071,-1.331 -0.142,-2.656 -0.216,-4.04c-1.628,0.568 -3.144,0.401 -4.668,0.118c-0.814,-0.151 -1.644,-0.223 -2.455,-0.388c-0.938,-0.192 -1.856,-0.478 -2.795,-0.661c-0.553,-0.108 -1.189,-0.494 -1.644,0.267c-0.502,-0.226 -1.06,-0.155 -1.446,-0.758c-0.226,-0.352 -0.892,-0.468 -1.384,-0.597c-0.895,-0.236 -1.815,-0.373 -2.712,-0.604c-0.639,-0.165 -1.249,-0.437 -1.882,-0.627c-0.7,-0.21 -1.406,-0.405 -2.119,-0.567c-2.386,-0.544 -4.652,-1.436 -6.909,-2.351c-0.659,-0.267 -1.228,-0.446 -1.846,0.176c-0.274,0.276 -0.817,0.351 -1.25,0.392c-1.579,0.154 -2.643,1.131 -3.543,2.268c-0.62,0.783 -0.797,1.804 -0.978,2.789c-0.191,1.038 -0.468,2.063 -0.612,3.107c-0.132,0.951 -0.133,1.92 -0.196,2.881c-0.048,0.736 -0.152,1.474 -0.14,2.21c0.013,0.767 0.128,1.534 0.215,2.299c0.043,0.382 0.206,0.768 0.174,1.139c-0.185,2.125 0.713,4.1 0.819,6.186c0.046,0.885 0.252,1.783 0.523,2.632c0.519,1.629 0.05,3.324 0.417,4.956c0.038,0.173 -0.042,0.371 -0.07,0.588c-0.364,0.072 -0.699,0.139 -1.175,0.233c-0.33,-0.399 -0.708,-0.855 -1.086,-1.313c-0.082,-0.099 -0.152,-0.211 -0.245,-0.298c-1.573,-1.484 -2.866,-3.174 -3.93,-5.06c-0.661,-1.171 -1.517,-2.23 -2.204,-3.389c-0.633,-1.07 -1.371,-2.083 -1.773,-3.29c-0.19,-0.569 -0.605,-1.06 -0.897,-1.598c-0.272,-0.5 -0.513,-1.016 -0.771,-1.523c-0.114,-0.226 -0.243,-0.445 -0.353,-0.673c-0.539,-1.12 -1.057,-2.251 -1.618,-3.36c-0.359,-0.71 -0.789,-1.383 -1.167,-2.084c-0.15,-0.278 -0.201,-0.615 -0.375,-0.874c-1.06,-1.577 -1.576,-3.404 -2.373,-5.102c-0.162,-0.346 -0.3,-0.708 -0.508,-1.024c-0.713,-1.09 -1.011,-2.323 -1.313,-3.561c-0.111,-0.455 -0.379,-0.875 -0.468,-1.332c-0.192,-0.99 -0.297,-1.997 -0.477,-2.991c-0.084,-0.462 -0.264,-0.906 -0.393,-1.36c-0.166,-0.581 -0.437,-1.158 -0.465,-1.746c-0.067,-1.426 -0.719,-2.715 -0.874,-4.11c-0.113,-1.017 -0.184,-2.038 -0.282,-3.056c-0.089,-0.912 -0.189,-1.824 -0.286,-2.736c-0.023,-0.223 -0.13,-0.474 -0.063,-0.665c0.515,-1.471 0.06,-3.053 0.542,-4.53c0.114,-0.349 0.02,-0.764 0.035,-1.148c0.02,-0.505 -0.027,-1.032 0.098,-1.511c0.216,-0.832 0.702,-1.62 0.789,-2.456c0.167,-1.59 0.57,-3.019 1.706,-4.2c0.205,-0.213 0.259,-0.575 0.376,-0.871c0.701,-1.789 2.215,-2.88 3.564,-4.109c0.206,-0.188 0.493,-0.29 0.744,-0.428c0.724,-0.401 1.443,-0.812 2.177,-1.194c0.439,-0.229 0.898,-0.423 1.357,-0.61c0.707,-0.288 1.416,-0.573 2.136,-0.827c0.231,-0.082 0.5,-0.096 0.749,-0.084c1.572,0.072 3.148,0.112 4.713,0.263c0.789,0.076 1.569,0.325 2.332,0.562c0.84,0.262 1.657,0.599 2.6,0.945c0,-1.006 -0.018,-1.953 0.007,-2.9c0.015,-0.541 0.117,-1.078 0.147,-1.619c0.106,-1.855 0.149,-3.716 0.308,-5.567c0.16,-1.855 0.558,-3.695 0.619,-5.55c0.071,-2.134 0.66,-4.168 0.954,-6.255c0.272,-1.925 0.848,-3.806 1.284,-5.708c0.201,-0.876 0.416,-1.751 0.569,-2.635c0.258,-1.479 0.595,-2.924 1.359,-4.242c0.115,-0.2 0.065,-0.488 0.149,-0.713c0.445,-1.201 0.877,-2.408 1.375,-3.587c0.496,-1.176 1.064,-2.323 1.638,-3.562c-0.409,-0.554 -0.151,-1.125 0.173,-1.761c0.859,-1.683 2.061,-3.115 3.4,-4.39c1.089,-1.037 2.077,-2.161 3.137,-3.22c0.658,-0.658 1.378,-1.253 2.071,-1.877c0.07,-0.064 0.129,-0.162 0.211,-0.188c1.581,-0.512 2.786,-1.681 4.239,-2.413c0.625,-0.316 1.271,-0.591 1.91,-0.878c0.145,-0.065 0.34,-0.06 0.448,-0.157c1.116,-1.007 2.637,-1.154 3.912,-1.827c0.358,-0.189 0.895,-0.162 1.316,-0.075c0.402,0.083 0.731,0.05 1.119,-0.044c1.185,-0.286 2.387,-0.501 3.583,-0.741c0.093,-0.019 0.194,-0.033 0.287,-0.021c1.816,0.246 3.662,0.361 5.437,0.78c2.22,0.525 4.354,1.351 6.144,2.863c0.464,0.391 0.967,0.753 1.497,1.047c1.333,0.739 2.449,1.741 3.566,2.757c0.61,0.556 1.353,0.968 1.972,1.517c0.45,0.398 0.8,0.91 1.187,1.378c0.487,0.591 0.968,1.186 1.449,1.782c0.201,0.251 0.397,0.507 0.59,0.764c0.116,0.153 0.185,0.38 0.337,0.463c1.45,0.797 1.899,2.359 2.776,3.59c0.427,0.598 0.863,1.199 1.209,1.844c0.927,1.719 2.309,3.146 3.054,4.99c0.927,2.292 1.899,4.563 2.573,6.946c0.315,1.11 0.531,2.256 0.937,3.33c0.561,1.486 0.719,3.048 1.055,4.575c0.255,1.159 0.56,2.309 0.78,3.474c0.365,1.923 0.705,3.852 1.005,5.787c0.249,1.603 0.459,3.214 0.624,4.828c0.176,1.726 0.273,3.46 0.421,5.19c0.062,0.723 0.165,1.443 0.256,2.219c0.706,-0.27 1.411,-0.398 1.94,-0.773c0.987,-0.699 2.135,-0.652 3.216,-0.876c0.872,-0.179 1.795,-0.284 2.675,-0.202c1.72,0.16 3.466,0.161 5.148,0.657c0.801,0.236 1.639,0.36 2.423,0.639c0.782,0.279 1.583,0.593 2.258,1.059c1.632,1.127 3.347,2.157 4.553,3.816c1.495,2.06 2.55,4.263 3.017,6.798c0.409,2.218 0.831,4.431 0.89,6.682c0.057,2.204 -0.071,4.404 -0.401,6.597zM225.877,94.999c0.117,0.106 0.214,0.241 0.345,0.305c0.573,0.281 1.138,0.591 1.738,0.801c1.696,0.593 3.359,1.287 5.205,1.384c0.647,0.034 1.311,0.083 1.957,0.166c2.156,0.277 4.289,0.196 6.405,-0.266c1.128,-0.246 2.23,-0.683 3.368,-0.795c1.71,-0.17 3.234,-0.813 4.758,-1.496c0.62,-0.279 1.22,-0.626 1.702,-1.155c-1.467,-1.339 -3.161,-2.058 -4.912,-2.673c-0.391,-0.138 -0.774,-0.371 -1.173,-0.402c-1.598,-0.122 -3.186,-0.288 -4.761,-0.594c-0.399,-0.077 -0.831,-0.029 -1.243,0.012c-1.877,0.188 -3.722,0.546 -5.571,0.925c-1.508,0.309 -2.809,1.061 -4.223,1.559c-1.341,0.471 -2.482,1.288 -3.595,2.229zM208.231,134.515c0.583,0.425 1.117,0.694 1.49,1.107c1.814,2.008 4.128,3.108 6.686,3.792c0.93,0.249 1.868,0.469 2.793,0.731c1.727,0.49 3.415,1.103 5.21,1.365c2.539,0.37 5.058,0.873 7.596,1.261c1.273,0.196 2.568,0.251 3.851,0.389c0.961,0.103 1.91,0.183 2.885,0.066c0.786,-0.094 1.601,-0.078 2.39,0.008c1.129,0.122 2.237,0.183 3.365,-0.056c0.551,-0.117 1.141,-0.062 1.714,-0.068c0.451,-0.005 0.906,0.054 1.353,0.016c1.114,-0.094 2.226,-0.224 3.338,-0.347c2.561,-0.285 5.08,-0.79 7.553,-1.502c1.079,-0.311 2.124,-0.739 3.185,-1.114c0.455,-0.16 0.927,-0.282 1.36,-0.486c0.929,-0.437 1.813,-0.978 2.76,-1.365c2.025,-0.828 3.825,-1.983 5.43,-3.459c0.235,-0.214 0.5,-0.48 0.788,-0.538c0.657,-0.131 0.726,-0.765 1.11,-1.119c0.553,-0.509 0.103,-0.982 -0.045,-1.481c-0.078,-0.265 0.013,-0.575 -0.042,-0.851c-0.356,-1.779 -0.726,-3.555 -1.101,-5.329c-0.124,-0.592 -0.244,-1.186 -0.415,-1.765c-0.38,-1.29 -0.793,-2.571 -1.189,-3.856c-0.265,-0.857 -0.517,-1.718 -0.787,-2.574c-0.231,-0.731 -0.45,-1.469 -0.729,-2.183c-0.437,-1.119 -0.848,-2.259 -1.406,-3.318c-0.512,-0.974 -1.209,-1.852 -1.815,-2.778c-0.118,-0.182 -0.21,-0.389 -0.274,-0.596c-0.255,-0.821 -0.651,-1.651 -1.236,-2.184c-0.602,-0.548 -0.909,-1.207 -1.332,-1.829c-0.197,-0.289 -0.456,-0.535 -0.684,-0.803c-0.831,-0.973 -1.634,-1.97 -2.495,-2.914c-1.857,-2.038 -3.843,-3.936 -6.143,-5.433c-0.413,0.209 -0.788,0.381 -1.147,0.582c-1.63,0.913 -3.338,1.659 -5.134,2.158c-0.615,0.171 -1.203,0.423 -1.815,0.563c-1.118,0.257 -2.275,0.341 -3.395,0.593c-2.712,0.611 -5.442,0.328 -8.154,0.146c-1.551,-0.104 -3.115,-0.464 -4.601,-0.936c-1.423,-0.452 -2.755,-1.193 -4.123,-1.815c-0.345,-0.157 -0.678,-0.343 -1.076,-0.545c-0.812,0.738 -1.562,1.385 -2.27,2.075c-0.459,0.447 -0.86,0.955 -1.284,1.439c-0.656,0.748 -1.256,1.554 -1.977,2.232c-0.755,0.71 -1.056,1.726 -1.808,2.426c-0.14,0.13 -0.245,0.455 -0.181,0.617c0.189,0.476 -0.073,0.816 -0.261,1.168c-0.59,1.102 -1.214,2.186 -1.814,3.283c-1.289,2.349 -2.09,4.893 -2.874,7.435c-0.423,1.373 -0.648,2.807 -0.977,4.211c-0.11,0.467 -0.308,0.917 -0.394,1.388c-0.512,2.804 -1.032,5.606 -1.486,8.42c-0.209,1.289 -0.275,2.602 -0.393,3.773zM208.193,185.755c-0.018,-0.22 -0.016,-0.444 -0.056,-0.661c-0.182,-1.002 -0.523,-2.002 -0.528,-3.004c-0.006,-1.327 -0.117,-2.618 -0.37,-3.916c-0.164,-0.845 -0.107,-1.734 -0.301,-2.569c-0.286,-1.227 -0.521,-2.454 -0.524,-3.713c-0.002,-0.518 -0.131,-0.956 -0.507,-1.304c-0.394,-0.365 -0.361,-0.828 -0.036,-1.097c0.438,-0.362 0.377,-0.771 0.379,-1.212c0.006,-1.689 -0.419,-3.353 -0.29,-5.049c0.031,-0.41 0.05,-0.825 0.021,-1.234c-0.111,-1.592 -0.308,-3.181 -0.347,-4.774c-0.024,-0.98 -0.403,-1.972 0.003,-2.955c0.034,-0.083 0.027,-0.194 0.006,-0.284c-0.29,-1.257 -0.045,-2.51 -0.004,-3.921c-0.936,-0.383 -1.881,-0.747 -2.806,-1.156c-0.956,-0.423 -1.934,-0.673 -2.985,-0.588c-0.158,0.012 -0.319,0.008 -0.478,-0.004c-0.884,-0.067 -1.767,-0.191 -2.65,-0.191c-0.599,0 -1.25,0.051 -1.787,0.287c-1.556,0.683 -3.087,1.43 -4.587,2.229c-1.359,0.724 -2.425,1.822 -3.241,3.107c-0.72,1.134 -1.44,2.307 -1.899,3.558c-0.617,1.682 -1.116,3.432 -1.424,5.194c-0.397,2.284 -0.36,4.616 -0.368,6.939c-0.01,2.907 0.515,5.726 1.181,8.532c0.467,1.97 0.897,3.949 1.417,5.905c0.436,1.641 0.869,3.296 1.498,4.868c0.712,1.781 1.684,3.456 2.463,5.213c1.03,2.322 2.605,4.376 3.353,6.833c0.028,0.092 0.086,0.173 0.131,0.26c1.102,2.069 2.201,4.14 3.308,6.206c0.454,0.849 0.873,1.725 1.402,2.527c0.989,1.5 2.023,2.972 3.087,4.42c0.452,0.614 1.028,1.138 1.661,1.826c0.03,-0.374 0.069,-0.533 0.051,-0.686c-0.222,-1.878 -0.365,-3.772 -0.705,-5.629c-0.377,-2.053 -0.539,-4.127 -0.851,-6.182c-0.196,-1.294 0.311,-2.536 -0.04,-3.85c-0.237,-0.888 -0.032,-1.919 0.093,-2.871c0.195,-1.496 0.525,-2.973 0.731,-4.468c0.21,-1.528 0.719,-2.853 1.773,-4.048c0.617,-0.701 1.267,-1.253 2.074,-1.643c0.685,-0.332 1.408,-0.59 2.152,-0.895zM213.775,187.152c-0.079,-0.643 -0.194,-1.164 -0.197,-1.684c-0.004,-1.016 0.101,-2.034 0.075,-3.049c-0.042,-1.685 -0.151,-3.368 -0.237,-5.053c-0.026,-0.511 -0.366,-0.79 -0.788,-0.995c-1.364,-0.664 -2.75,-1.287 -3.895,-2.32c-0.088,-0.08 -0.275,-0.053 -0.575,-0.101c0.286,1.721 0.559,3.319 0.812,4.922c0.079,0.504 0.132,1.016 0.148,1.527c0.03,0.927 -0.01,1.859 0.043,2.786c0.037,0.635 0.158,1.269 0.287,1.895c0.042,0.203 0.188,0.478 0.356,0.547c1.263,0.513 2.544,0.983 3.971,1.525zM226.576,189.509c-0.085,-1.372 -0.227,-2.739 -0.314,-4.11c-0.088,-1.375 -0.121,-2.754 -0.207,-4.13c-0.064,-1.031 -0.163,-1.105 -1.15,-1.317c-2.325,-0.497 -4.649,-1.001 -6.971,-1.509c-0.925,-0.203 -1.846,-0.423 -2.865,-0.658c0,0.407 -0.018,0.69 0.003,0.972c0.102,1.407 0.23,2.813 0.317,4.221c0.039,0.641 0.033,1.287 -0.006,1.928c-0.031,0.505 -0.135,1.006 -0.224,1.506c-0.07,0.394 -0.168,0.784 -0.262,1.217c0.366,0.105 0.605,0.188 0.851,0.242c0.847,0.183 1.732,0.255 2.535,0.553c2.596,0.963 5.239,1.727 8.146,2.171c0.059,-0.409 0.168,-0.752 0.147,-1.086zM239.247,192.202c-0.079,-3.523 -0.296,-6.98 -0.292,-10.495c-1.906,-0.502 -3.776,-0.416 -5.608,-0.624c-1.856,-0.21 -3.712,-0.414 -5.676,-0.633c0.319,3.628 0.051,7.15 0.777,10.663c3.601,0.848 7.107,1.626 10.799,1.089zM248.21,200.778c-0.096,0.738 -0.176,1.371 -0.261,2.003c-0.127,0.954 -0.188,1.923 -0.402,2.858c-0.317,1.381 -0.594,2.761 -0.673,4.18c-0.026,0.479 -0.023,0.835 0.514,1.096c0.47,0.229 0.841,0.66 1.249,1.01c0.512,0.438 0.514,1.142 0.859,1.666c1.099,1.669 1.155,3.565 1.147,5.454c-0.003,0.881 -0.255,1.757 -0.316,2.641c-0.079,1.154 -0.07,2.313 -0.617,3.383c-0.113,0.223 -0.123,0.497 -0.185,0.746c-0.28,1.121 -0.423,2.3 -0.875,3.347c-0.612,1.415 -1.171,2.841 -1.609,4.315c-0.293,0.985 -0.395,2.058 -0.848,2.959c-0.983,1.953 -1.299,4.073 -1.818,6.146c-0.085,0.338 -0.118,0.701 -0.105,1.05c0.019,0.542 -0.097,1.01 -0.494,1.378c-0.643,-0.066 -1.13,-0.318 -1.302,-0.958c-0.074,-0.275 -0.097,-0.568 -0.119,-0.854c-0.044,-0.595 0.077,-1.253 -0.139,-1.773c-0.438,-1.048 -0.862,-2.083 -1.162,-3.187c-0.644,-2.368 -1.488,-4.681 -2.045,-7.071c-0.283,-1.215 -0.624,-2.398 -1.099,-3.549c-0.158,-0.384 -0.272,-0.796 -0.338,-1.206c-0.246,-1.51 -0.349,-3.044 -0.807,-4.518c-0.065,-0.208 -0.042,-0.447 -0.043,-0.672c-0.005,-1.018 0.022,-2.037 -0.011,-3.054c-0.039,-1.196 -0.241,-2.4 0.518,-3.483c0.139,-0.199 0.136,-0.493 0.223,-0.735c0.412,-1.131 0.921,-2.178 2.228,-2.535c0.114,-0.031 0.202,-0.152 0.303,-0.231c0.267,-0.21 0.534,-0.421 0.898,-0.707c-0.318,-3.066 -0.669,-6.216 -1.162,-9.366c-1.067,-0.129 -1.974,0.382 -2.871,0.712c-1.361,0.501 -2.471,1.478 -3.492,2.503c-0.517,0.519 -1.009,1.096 -1.377,1.726c-1.479,2.536 -2.105,5.361 -2.629,8.205c-0.186,1.006 -0.254,2.037 -0.337,3.059c-0.106,1.313 -0.2,2.627 -0.25,3.943c-0.036,0.959 -0.045,1.927 0.031,2.884c0.093,1.177 0.225,2.357 0.45,3.515c0.356,1.826 0.798,3.634 1.214,5.447c0.387,1.69 0.745,3.388 1.198,5.061c0.393,1.457 0.89,2.886 1.361,4.321c0.37,1.128 0.732,2.261 1.17,3.363c0.411,1.036 0.916,2.033 1.377,3.049c0.555,1.229 1.092,2.467 1.667,3.686c0.34,0.724 0.815,1.392 1.094,2.135c0.585,1.562 1.007,3.175 1.726,4.697c0.625,1.324 0.859,2.816 1.688,4.071c0.223,0.339 0.294,0.777 0.44,1.167c0.371,0.991 0.745,1.98 1.118,2.97c0.092,0.022 0.186,0.045 0.278,0.067c0.175,-0.282 0.396,-0.545 0.513,-0.849c0.182,-0.475 0.255,-0.991 0.443,-1.463c0.34,-0.862 0.738,-1.701 1.096,-2.556c0.455,-1.092 0.888,-2.193 1.341,-3.285c0.344,-0.83 0.717,-1.647 1.055,-2.478c0.279,-0.683 0.447,-1.422 0.804,-2.059c0.69,-1.235 1.29,-2.494 1.631,-3.87c0.054,-0.215 0.167,-0.415 0.252,-0.624c0.429,-1.057 0.858,-2.115 1.286,-3.173c0.601,-1.482 1.258,-2.945 1.783,-4.453c0.481,-1.382 1.028,-2.734 1.319,-4.197c0.286,-1.435 0.725,-2.845 0.951,-4.304c0.065,-0.422 0.324,-0.816 0.506,-1.218c0.181,-0.404 0.45,-0.785 0.547,-1.207c0.141,-0.613 0.126,-1.261 0.243,-1.881c0.31,-1.637 0.684,-3.262 0.979,-4.901c0.326,-1.815 0.653,-3.634 0.862,-5.464c0.106,-0.931 -0.054,-1.892 -0.078,-2.84c-0.008,-0.312 0.086,-0.634 0.042,-0.939c-0.24,-1.645 -0.597,-3.258 -1.116,-4.849c-1.058,-3.237 -3.107,-5.708 -5.713,-7.793c-0.025,-0.02 -0.057,-0.032 -0.082,-0.051c-0.651,-0.512 -1.299,-1.025 -1.951,-1.534c-0.119,-0.094 -0.282,-0.261 -0.379,-0.233c-0.709,0.202 -1.161,-0.265 -1.699,-0.693zM239.088,213.96c-0.527,0.873 -0.713,1.838 -0.797,2.825c-0.07,0.829 -0.129,1.666 -0.096,2.496c0.04,1.021 0.133,2.045 0.287,3.056c0.227,1.488 0.472,2.979 0.815,4.442c0.292,1.24 0.769,2.435 1.103,3.666c0.309,1.14 0.46,2.32 0.984,3.4c0.165,0.342 0.255,0.72 0.369,1.084c0.475,1.512 0.945,3.025 1.417,4.538c0.288,-0.396 0.363,-0.833 0.55,-1.216c0.359,-0.735 0.505,-1.543 1.055,-2.231c0.377,-0.472 0.359,-1.265 0.5,-1.918c0.136,-0.623 0.178,-1.278 0.391,-1.872c0.324,-0.899 0.761,-1.758 1.148,-2.634c0.064,-0.146 0.149,-0.287 0.187,-0.439c0.35,-1.387 0.694,-2.776 1.034,-4.166c0.29,-1.183 0.602,-2.361 0.846,-3.553c0.108,-0.529 0.001,-1.102 0.117,-1.628c0.343,-1.551 0.049,-2.996 -0.485,-4.461c-0.392,-1.079 -1.186,-1.821 -1.854,-2.733c-0.064,0.133 -0.123,0.212 -0.142,0.3c-0.414,1.978 -0.831,3.955 -1.232,5.937c-0.157,0.783 -0.249,1.581 -0.418,2.362c-0.179,0.83 -0.732,1.005 -1.409,0.476c-0.315,-0.245 -0.483,-0.537 -0.536,-0.971c-0.1,-0.822 -0.311,-1.632 -0.496,-2.442c-0.225,-0.981 -0.481,-1.955 -0.702,-2.937c-0.169,-0.745 -0.306,-1.497 -0.457,-2.248c-1.138,-0.204 -1.696,0.066 -2.179,0.867zM249.006,175.433c0.201,-1.608 0.528,-3.201 0.792,-4.801c0.047,-0.282 0.066,-0.572 0.071,-0.859c0.02,-1.003 0.031,-2.007 0.039,-3.011c0.005,-0.606 0.022,-1.213 -0.009,-1.818c-0.083,-1.681 0.198,-3.409 -0.669,-4.992c-0.114,-0.21 -0.089,-0.501 -0.114,-0.756c-0.117,-1.234 -0.544,-2.326 -1.273,-3.354c-0.759,-1.071 -1.77,-1.731 -2.958,-2.238c-0.245,0.06 -0.529,0.111 -0.803,0.198c-1.399,0.443 -2.617,1.149 -3.184,2.579c-0.342,0.861 -0.685,1.768 -0.766,2.678c-0.186,2.1 -0.599,4.172 -0.596,6.304c0.005,3.242 0.123,6.475 0.344,9.706c0.087,1.275 0.354,2.54 0.423,3.816c0.143,2.621 0.2,5.247 0.308,7.87c0.109,2.633 0.228,5.266 0.358,7.898c0.101,2.055 0.189,4.111 0.351,6.161c0.11,1.404 0.335,2.799 0.513,4.197c0.255,2 0.456,4.009 0.79,5.995c0.305,1.811 0.756,3.598 1.178,5.558c0.468,-0.541 0.461,-1.052 0.505,-1.546c0.034,-0.38 0.04,-0.768 0.124,-1.138c0.126,-0.561 0.364,-1.101 0.457,-1.665c0.146,-0.883 0.201,-1.78 0.312,-2.668c0.122,-0.983 0.14,-2.002 0.421,-2.939c0.502,-1.669 0.466,-3.406 0.821,-5.091c0.241,-1.144 0.29,-2.33 0.412,-3.498c0.04,-0.378 0.011,-0.765 0.067,-1.14c0.163,-1.096 0.404,-2.182 0.521,-3.282c0.141,-1.323 0.132,-2.651 0.379,-3.979c0.291,-1.559 0.293,-3.171 0.416,-4.76c0.067,-0.883 0.1,-1.769 0.193,-2.649c0.119,-1.146 0.319,-2.283 0.415,-3.429c0.094,-1.112 0.023,-2.242 0.162,-3.347zM257.212,191.923c-0.001,-1.17 -0.017,-2.342 -0.086,-3.509c-0.066,-1.115 -0.204,-2.225 -0.307,-3.336c-0.091,-0.985 -0.251,-1.971 -0.239,-2.954c0.009,-0.638 -0.088,-1.197 -0.404,-1.802c-1.954,0.256 -3.913,0.514 -5.917,0.777c-0.106,0.598 -0.238,1.129 -0.289,1.668c-0.098,1.01 -0.128,2.026 -0.224,3.036c-0.19,2.009 -0.4,4.016 -0.613,6.023c-0.051,0.463 0.043,0.825 0.512,0.953c0.601,-0.026 1.195,0.008 1.789,0.054c0.414,0.033 0.832,0.146 1.239,0.11c1.021,-0.089 2.037,-0.24 3.054,-0.371c0.382,-0.049 0.777,-0.071 1.14,-0.185c0.154,-0.048 0.345,-0.302 0.345,-0.464zM260.108,178.13c1.132,-0.083 2.256,-0.23 3.368,-0.412c0.774,-0.127 1.515,-0.489 2.256,-0.784c1.4,-0.557 2.799,-1.121 4.181,-1.722c0.616,-0.268 1.183,-0.646 1.784,-0.951c1.356,-0.688 2.627,-1.501 3.681,-2.604c0.42,-0.44 0.884,-0.706 1.587,-0.676c-0.055,-0.715 -0.09,-1.351 -0.159,-1.985c-0.079,-0.734 -0.221,-1.463 -0.276,-2.199c-0.08,-1.09 -0.111,-2.184 -0.154,-3.276c-0.036,-0.901 -0.015,-1.807 -0.099,-2.703c-0.176,-1.877 -0.408,-3.749 -0.608,-5.624c-0.064,-0.604 -0.064,-1.215 -0.153,-1.814c-0.213,-1.432 -0.445,-2.855 -0.279,-4.314c0.049,-0.43 -0.046,-0.88 -0.099,-1.317c-0.111,-0.926 -0.259,-1.847 -0.354,-2.774c-0.152,-1.495 -0.271,-2.995 -0.41,-4.492c-0.047,-0.505 -0.19,-1.013 -0.154,-1.51c0.082,-1.173 -0.268,-2.232 -0.636,-3.342c-0.2,0.166 -0.312,0.285 -0.447,0.365c-0.51,0.308 -1.073,0.545 -1.534,0.912c-1.328,1.056 -2.726,1.973 -4.365,2.474c-0.122,0.037 -0.254,0.073 -0.356,0.146c-1.211,0.858 -2.553,1.499 -3.94,1.961c-1.838,0.612 -3.645,1.342 -5.573,1.685c-1.537,0.274 -3.058,0.643 -4.591,0.946c-0.464,0.092 -0.945,0.1 -1.417,0.155c-0.541,0.064 -1.081,0.139 -1.622,0.206c-0.542,0.068 -1.084,0.173 -1.628,0.191c-1.113,0.037 -2.229,-0.024 -3.339,0.046c-3.312,0.208 -6.624,0.24 -9.93,0.016c-1.655,-0.112 -3.297,-0.444 -4.939,-0.71c-2.185,-0.355 -4.367,-0.729 -6.545,-1.12c-1.231,-0.222 -2.476,-0.366 -3.634,-0.928c-0.682,-0.332 -1.438,-0.576 -2.187,-0.698c-2.162,-0.351 -4.207,-1.022 -6.144,-2.026c-0.368,-0.191 -0.675,-0.514 -1.055,-0.656c-0.945,-0.355 -1.537,-1.126 -2.363,-1.84c-0.091,0.592 -0.206,1.093 -0.238,1.6c-0.148,2.34 -0.28,4.682 -0.4,7.025c-0.026,0.513 0.052,1.031 0.032,1.544c-0.098,2.594 -0.246,5.187 -0.306,7.782c-0.023,1.046 0.154,2.094 0.204,3.143c0.118,2.429 0.187,4.859 0.328,7.286c0.09,1.573 0.224,3.148 0.439,4.708c0.074,0.535 0.35,1.121 0.713,1.523c0.618,0.685 1.357,1.267 2.08,1.848c1.101,0.884 2.288,1.625 3.62,2.137c1.673,0.642 3.327,1.334 4.991,1.998c0.146,0.059 0.313,0.067 0.47,0.096c1.262,0.234 2.523,0.469 3.785,0.702c0.189,0.034 0.378,0.066 0.568,0.095c1.202,0.184 2.406,0.36 3.606,0.552c0.666,0.106 1.323,0.262 1.991,0.351c1.008,0.135 2.021,0.231 3.032,0.344c0.859,0.095 1.714,0.236 2.575,0.274c0.858,0.038 1.725,-0.157 2.564,0.231c0.179,0.084 0.475,-0.08 0.763,-0.14c-0.027,-0.469 -0.027,-0.887 -0.083,-1.298c-0.115,-0.854 -0.335,-1.699 -0.378,-2.554c-0.144,-2.863 -0.252,-5.728 -0.328,-8.593c-0.042,-1.568 -0.022,-3.139 0.03,-4.707c0.025,-0.763 0.178,-1.524 0.291,-2.284c0.074,-0.501 0.205,-0.996 0.267,-1.499c0.135,-1.094 0.62,-2.076 0.942,-3.11c0.719,-2.304 2.319,-3.542 4.662,-3.913c0.308,-0.049 0.61,-0.137 0.748,-0.168c0.387,0.221 0.633,0.416 0.914,0.51c2.491,0.841 3.862,2.645 4.46,5.12c0.12,0.497 0.076,1.095 0.344,1.482c0.305,0.439 0.358,0.863 0.387,1.334c0.054,0.864 0.108,1.729 0.148,2.595c0.134,2.956 0.173,5.9 -0.283,8.849c-0.332,2.15 -0.411,4.338 -0.593,6.51c-0.029,0.347 -0.004,0.698 -0.004,1.041c0.194,0.057 0.321,0.133 0.438,0.121c1.815,-0.199 3.631,-0.395 5.443,-0.622c1.306,-0.163 2.6,-0.445 3.911,-0.539zM267.729,177.863c-1.618,0.554 -3.052,1.307 -4.664,1.511c-1.617,0.206 -3.222,0.497 -4.863,0.757c-0.045,3.997 0.888,7.834 0.917,11.887c3.126,-0.691 6.184,-1.414 9.176,-2.377c0.226,-3.931 -0.217,-7.786 -0.566,-11.778zM277.625,180.661c-0.064,-0.131 -0.012,-0.318 -0.019,-0.479c-0.061,-1.217 -0.129,-2.434 -0.18,-3.651c-0.024,-0.572 -0.012,-1.145 -0.028,-1.717c-0.02,-0.721 -0.052,-1.443 -0.088,-2.397c-1.164,0.832 -2.103,1.483 -3.019,2.162c-1.163,0.862 -2.387,1.623 -3.71,2.206c-1.079,0.475 -1.159,0.445 -1.086,1.606c0.197,3.074 0.45,6.143 0.688,9.214c0.026,0.335 0.104,0.665 0.158,0.999c1.563,-0.49 2.787,-1.435 4.13,-2.161c1.432,-0.774 2.256,-2.125 3.345,-3.162c0.172,-0.897 0.226,-1.776 -0.191,-2.62zM300.894,162.45c-0.152,-1.11 -0.382,-2.211 -0.635,-3.303c-0.15,-0.649 -0.348,-1.304 -0.642,-1.899c-0.615,-1.248 -1.302,-2.461 -1.973,-3.682c-0.089,-0.162 -0.231,-0.316 -0.385,-0.416c-1.1,-0.707 -1.959,-1.708 -3.164,-2.319c-0.949,-0.484 -1.869,-1.036 -2.901,-1.266c-1.435,-0.319 -2.826,-0.851 -4.335,-0.863c-1.189,-0.01 -2.378,-0.238 -3.562,-0.203c-1.048,0.03 -2.13,0.164 -3.122,0.482c-1.116,0.358 -2.147,0.975 -3.33,1.533c0.088,0.952 0.179,1.81 0.245,2.669c0.101,1.312 0.159,2.626 0.288,3.935c0.125,1.273 0.363,2.536 0.467,3.81c0.146,1.792 0.163,3.596 0.332,5.384c0.17,1.791 0.543,3.563 0.677,5.354c0.176,2.369 0.212,4.748 0.294,7.123c0.011,0.348 -0.131,0.707 -0.084,1.044c0.164,1.174 0.363,2.344 0.583,3.508c0.079,0.415 0.407,0.584 0.82,0.702c1.265,0.362 2.5,0.858 3.554,1.635c2.063,1.519 3.578,3.481 4.434,5.924c0.519,1.483 1.08,2.95 1.618,4.425c0.473,1.298 0.893,2.607 0.947,4.005c0.009,0.231 0.066,0.461 0.101,0.692c0.066,0.011 0.132,0.022 0.197,0.033c0.486,-1.131 0.979,-2.259 1.456,-3.393c0.543,-1.292 1.045,-2.599 1.61,-3.879c0.863,-1.956 1.832,-3.86 2.574,-5.877c0.474,-1.287 1.018,-2.537 1.312,-3.888c0.196,-0.904 0.622,-1.771 0.732,-2.681c0.226,-1.894 0.924,-3.674 1.174,-5.573c0.225,-1.703 0.63,-3.39 0.861,-5.107c0.357,-2.653 0.217,-5.282 -0.143,-7.909z" fill="#30419a" fill-rule="nonzero" stroke-width="1"/><path d="M241.25789,213.04384c0.151,0.751 0.28818,1.50297 0.45718,2.24797c0.221,0.982 0.47804,1.95582 0.70304,2.93682c0.185,0.81 0.39696,1.61986 0.49696,2.44186c0.053,0.434 0.22554,0.72558 0.54054,0.97058c0.677,0.529 1.24446,0.35542 1.42346,-0.47458c0.169,-0.781 0.23793,-1.4817 0.39493,-2.2647c0.401,-1.982 0.8396,-4.05664 1.2536,-6.03464c0.019,-0.088 0.07827,-0.16694 0.14227,-0.29994c0.668,0.912 1.47176,1.65726 1.86376,2.73626c0.534,1.465 0.83986,2.91755 0.49686,4.46855c-0.116,0.526 -0.00402,1.1039 -0.11202,1.6329c-0.244,1.192 -0.54487,2.3914 -0.83487,3.5744c-0.34,1.39 -0.69608,2.82482 -1.04608,4.21182c-0.038,0.152 -0.12639,0.2963 -0.19039,0.4423c-0.387,0.876 -0.84177,1.74515 -1.16577,2.64415c-0.213,0.594 -0.26059,1.25046 -0.39659,1.87346c-0.141,0.653 -0.12727,1.44666 -0.50427,1.91866c-0.55,0.688 -0.7013,1.49631 -1.0603,2.23131c-0.187,0.383 -0.26407,0.81997 -0.55207,1.21597c-0.472,-1.513 -0.95067,-3.02708 -1.42567,-4.53908c-0.114,-0.364 -0.20751,-0.74289 -0.37251,-1.08489c-0.524,-1.08 -0.69075,-2.26783 -0.99975,-3.40783c-0.334,-1.231 -0.83052,-2.45784 -1.12252,-3.69784c-0.343,-1.463 -0.57938,-2.9914 -0.80638,-4.4794c-0.154,-1.011 -0.23777,-2.0448 -0.27777,-3.0658c-0.033,-0.83 0.03235,-1.67137 0.10235,-2.50037c0.084,-0.987 0.27739,-1.95552 0.80439,-2.82852c0.483,-0.801 1.04961,-1.07341 2.18761,-0.86941z" data-paper-data="{&quot;noHover&quot;:false,&quot;origItem&quot;:[&quot;Path&quot;,{&quot;applyMatrix&quot;:true,&quot;segments&quot;:[[[239.088,213.96],[0.483,-0.801],[-0.527,0.873]],[[238.291,216.785],[0.084,-0.987],[-0.07,0.829]],[[238.195,219.281],[-0.033,-0.83],[0.04,1.021]],[[238.482,222.337],[-0.154,-1.011],[0.227,1.488]],[[239.297,226.779],[-0.343,-1.463],[0.292,1.24]],[[240.4,230.445],[-0.334,-1.231],[0.309,1.14]],[[241.384,233.845],[-0.524,-1.08],[0.165,0.342]],[[241.753,234.929],[-0.114,-0.364],[0.475,1.512]],[[243.17,239.467],[-0.472,-1.513],[0.288,-0.396]],[[243.72,238.251],[-0.187,0.383],[0.359,-0.735]],[[244.775,236.02],[-0.55,0.688],[0.377,-0.472]],[[245.275,234.102],[-0.141,0.653],[0.136,-0.623]],[[245.666,232.23],[-0.213,0.594],[0.324,-0.899]],[[246.814,229.596],[-0.387,0.876],[0.064,-0.146]],[[247.001,229.157],[-0.038,0.152],[0.35,-1.387]],[[248.035,224.991],[-0.34,1.39],[0.29,-1.183]],[[248.881,221.438],[-0.244,1.192],[0.108,-0.529]],[[248.998,219.81],[-0.116,0.526],[0.343,-1.551]],[[248.513,215.349],[0.534,1.465],[-0.392,-1.079]],[[246.659,212.616],[0.668,0.912],[-0.064,0.133]],[[246.517,212.916],[0.019,-0.088],[-0.414,1.978]],[[245.285,218.853],[0.401,-1.982],[-0.157,0.783]],[[244.867,221.215],[0.169,-0.781],[-0.179,0.83]],[[243.458,221.691],[0.677,0.529],[-0.315,-0.245]],[[242.922,220.72],[0.053,0.434],[-0.1,-0.822]],[[242.426,218.278],[0.185,0.81],[-0.225,-0.981]],[[241.724,215.341],[0.221,0.982],[-0.169,-0.745]],[[241.267,213.093],[0.151,0.751],[-1.138,-0.204]]],&quot;closed&quot;:true,&quot;fillColor&quot;:[0,0,0,1],&quot;fillRule&quot;:&quot;evenodd&quot;}]}" fill="#ffe01f" fill-rule="evenodd" stroke-width="0.5"/><path d="M249.9179,201.4218c0.097,-0.028 0.26061,0.13912 0.37961,0.23312c0.652,0.509 1.30336,1.02277 1.95436,1.53477c0.025,0.019 0.05714,0.03104 0.08214,0.05104c2.606,2.085 4.66793,4.56154 5.72593,7.79854c0.519,1.591 0.88196,3.20825 1.12196,4.85325c0.044,0.305 -0.04906,0.6278 -0.04106,0.9398c0.024,0.948 0.18731,1.91216 0.08131,2.84316c-0.209,1.83 -0.52988,3.65683 -0.85588,5.47183c-0.295,1.639 -0.66353,3.27584 -0.97353,4.91284c-0.117,0.62 -0.10048,1.2743 -0.24148,1.8873c-0.097,0.422 -0.36544,0.80731 -0.54644,1.21131c-0.182,0.402 -0.44082,0.80085 -0.50582,1.22285c-0.226,1.459 -0.66858,2.88697 -0.95458,4.32197c-0.291,1.463 -0.84693,2.8295 -1.32793,4.2115c-0.525,1.508 -1.19339,2.98057 -1.79439,4.46257c-0.428,1.058 -0.86399,2.11956 -1.29299,3.17656c-0.085,0.209 -0.19921,0.40948 -0.25321,0.62448c-0.341,1.376 -0.94753,2.63701 -1.63753,3.87201c-0.357,0.637 -0.52764,1.37654 -0.80664,2.05954c-0.338,0.831 -0.71386,1.64842 -1.05786,2.47842c-0.453,1.092 -0.88899,2.19326 -1.34399,3.28526c-0.358,0.855 -0.75799,1.69408 -1.09799,2.55608c-0.188,0.472 -0.26172,0.98801 -0.44372,1.46301c-0.117,0.304 -0.33877,0.567 -0.51377,0.849c-0.092,-0.022 -0.18642,-0.04501 -0.27842,-0.06701c-0.373,-0.99 -0.74893,-1.97908 -1.11993,-2.97008c-0.146,-0.39 -0.21786,-0.82806 -0.44086,-1.16706c-0.829,-1.255 -1.06689,-2.74745 -1.69189,-4.07145c-0.719,-1.522 -1.1466,-3.1362 -1.7316,-4.6982c-0.279,-0.743 -0.75795,-1.41227 -1.09795,-2.13627c-0.575,-1.219 -1.11963,-2.46056 -1.67463,-3.68956c-0.461,-1.016 -0.97334,-2.01814 -1.38434,-3.05414c-0.438,-1.102 -0.80772,-2.24316 -1.17772,-3.37116c-0.471,-1.435 -0.97569,-2.87888 -1.36869,-4.33588c-0.453,-1.673 -0.81319,-3.39036 -1.20019,-5.08036c-0.416,-1.813 -0.85383,-3.63722 -1.20983,-5.46322c-0.225,-1.158 -0.35298,-2.3453 -0.44598,-3.5223c-0.076,-0.957 -0.0634,-1.92977 -0.0274,-2.88877c0.05,-1.316 0.14892,-2.63501 0.25492,-3.94801c0.083,-1.022 0.15459,-2.05589 0.34059,-3.06189c0.524,-2.844 1.15995,-5.67466 2.63895,-8.21066c0.368,-0.63 0.86285,-1.20811 1.37985,-1.72711c1.021,-1.025 2.13699,-2.00372 3.49799,-2.50472c0.897,-0.33 1.80837,-0.84176 2.87537,-0.71276c0.493,3.15 0.85684,6.39917 1.17484,9.46517c-0.364,0.286 -0.62892,0.49668 -0.89592,0.70668c-0.101,0.079 -0.18828,0.19987 -0.30228,0.23087c-1.307,0.357 -1.80994,1.40246 -2.22194,2.53346c-0.087,0.242 -0.083,0.53567 -0.222,0.73467c-0.759,1.083 -0.55271,2.28529 -0.51371,3.48129c0.033,1.017 0.00975,2.03411 0.01475,3.05211c0.001,0.225 -0.02112,0.4635 0.04388,0.6715c0.458,1.474 0.56745,3.00352 0.81345,4.51352c0.066,0.41 0.18212,0.82017 0.34012,1.20417c0.475,1.151 0.82475,2.32342 1.10775,3.53842c0.557,2.39 1.38795,4.63637 2.03195,7.00437c0.3,1.104 0.70641,2.13081 1.14441,3.17881c0.216,0.52 0.09201,1.17736 0.13601,1.77236c0.022,0.286 0.04366,0.57878 0.11766,0.85378c0.172,0.64 0.65237,0.89143 1.29537,0.95743c0.397,-0.368 0.51051,-0.83598 0.49151,-1.37798c-0.013,-0.349 0.01918,-0.71197 0.10418,-1.04997c0.519,-2.073 0.80191,-4.17831 1.78491,-6.13131c0.453,-0.901 0.54192,-1.92673 0.83492,-2.91173c0.438,-1.474 1.01167,-2.87523 1.62367,-4.29023c0.452,-1.047 0.60136,-2.22103 0.88136,-3.34203c0.062,-0.249 0.073,-0.52236 0.186,-0.74536c0.547,-1.07 0.54194,-2.22678 0.62094,-3.38078c0.061,-0.884 0.31548,-1.75883 0.31848,-2.63983c0.008,-1.889 -0.04082,-3.78248 -1.13982,-5.45148c-0.345,-0.524 -0.34431,-1.22736 -0.85631,-1.66536c-0.408,-0.35 -0.77601,-0.78047 -1.24601,-1.00947c-0.537,-0.261 -0.53865,-0.61682 -0.51265,-1.09582c0.079,-1.419 0.36808,-2.89827 0.68508,-4.27927c0.214,-0.935 0.26255,-1.80478 0.38955,-2.75878c0.085,-0.632 0.17753,-1.36421 0.27353,-2.10221c0.538,0.428 0.99263,0.8954 1.70163,0.6934z" data-paper-data="{&quot;noHover&quot;:false,&quot;origItem&quot;:[&quot;Path&quot;,{&quot;applyMatrix&quot;:true,&quot;segments&quot;:[[[248.21,200.778],[0.538,0.428],[-0.096,0.738]],[[247.949,202.781],[0.085,-0.632],[-0.127,0.954]],[[247.547,205.639],[0.214,-0.935],[-0.317,1.381]],[[246.874,209.819],[0.079,-1.419],[-0.026,0.479]],[[247.388,210.915],[-0.537,-0.261],[0.47,0.229]],[[248.637,211.925],[-0.408,-0.35],[0.512,0.438]],[[249.496,213.591],[-0.345,-0.524],[1.099,1.669]],[[250.643,219.045],[0.008,-1.889],[-0.003,0.881]],[[250.327,221.686],[0.061,-0.884],[-0.079,1.154]],[[249.71,225.069],[0.547,-1.07],[-0.113,0.223]],[[249.525,225.815],[0.062,-0.249],[-0.28,1.121]],[[248.65,229.162],[0.452,-1.047],[-0.612,1.415]],[[247.041,233.477],[0.438,-1.474],[-0.293,0.985]],[[246.193,236.436],[0.453,-0.901],[-0.983,1.953]],[[244.375,242.582],[0.519,-2.073],[-0.085,0.338]],[[244.27,243.632],[-0.013,-0.349],[0.019,0.542]],[[243.776,245.01],[0.397,-0.368],[-0.643,-0.066]],[[242.474,244.052],[0.172,0.64],[-0.074,-0.275]],[[242.355,243.198],[0.022,0.286],[-0.044,-0.595]],[[242.216,241.425],[0.216,0.52],[-0.438,-1.048]],[[241.054,238.238],[0.3,1.104],[-0.644,-2.368]],[[239.009,231.167],[0.557,2.39],[-0.283,-1.215]],[[237.91,227.618],[0.475,1.151],[-0.158,-0.384]],[[237.572,226.412],[0.066,0.41],[-0.246,-1.51]],[[236.765,221.894],[0.458,1.474],[-0.065,-0.208]],[[236.722,221.222],[0.001,0.225],[-0.005,-1.018]],[[236.711,218.168],[0.033,1.017],[-0.039,-1.196]],[[237.229,214.685],[-0.759,1.083],[0.139,-0.199]],[[237.452,213.95],[-0.087,0.242],[0.412,-1.131]],[[239.68,211.415],[-1.307,0.357],[0.114,-0.031]],[[239.983,211.184],[-0.101,0.079],[0.267,-0.21]],[[240.881,210.477],[-0.364,0.286],[-0.318,-3.066]],[[239.719,201.111],[0.493,3.15],[-1.067,-0.129]],[[236.848,201.823],[0.897,-0.33],[-1.361,0.501]],[[233.356,204.326],[1.021,-1.025],[-0.517,0.519]],[[231.979,206.052],[0.368,-0.63],[-1.479,2.536]],[[229.35,214.257],[0.524,-2.844],[-0.186,1.006]],[[229.013,217.316],[0.083,-1.022],[-0.106,1.313]],[[228.763,221.259],[0.05,-1.316],[-0.036,0.959]],[[228.794,224.143],[-0.076,-0.957],[0.093,1.177]],[[229.244,227.658],[-0.225,-1.158],[0.356,1.826]],[[230.458,233.105],[-0.416,-1.813],[0.387,1.69]],[[231.656,238.166],[-0.453,-1.673],[0.393,1.457]],[[233.017,242.487],[-0.471,-1.435],[0.37,1.128]],[[234.187,245.85],[-0.438,-1.102],[0.411,1.036]],[[235.564,248.899],[-0.461,-1.016],[0.555,1.229]],[[237.231,252.585],[-0.575,-1.219],[0.34,0.724]],[[238.325,254.72],[-0.279,-0.743],[0.585,1.562]],[[240.051,259.417],[-0.719,-1.522],[0.625,1.324]],[[241.739,263.488],[-0.829,-1.255],[0.223,0.339]],[[242.179,264.655],[-0.146,-0.39],[0.371,0.991]],[[243.297,267.625],[-0.373,-0.99],[0.092,0.022]],[[243.575,267.692],[-0.092,-0.022],[0.175,-0.282]],[[244.088,266.843],[-0.117,0.304],[0.182,-0.475]],[[244.531,265.38],[-0.188,0.472],[0.34,-0.862]],[[245.627,262.824],[-0.358,0.855],[0.455,-1.092]],[[246.968,259.539],[-0.453,1.092],[0.344,-0.83]],[[248.023,257.061],[-0.338,0.831],[0.279,-0.683]],[[248.827,255.002],[-0.357,0.637],[0.69,-1.235]],[[250.458,251.132],[-0.341,1.376],[0.054,-0.215]],[[250.71,250.508],[-0.085,0.209],[0.429,-1.057]],[[251.996,247.335],[-0.428,1.058],[0.601,-1.482]],[[253.779,242.882],[-0.525,1.508],[0.481,-1.382]],[[255.098,238.685],[-0.291,1.463],[0.286,-1.435]],[[256.049,234.381],[-0.226,1.459],[0.065,-0.422]],[[256.555,233.163],[-0.182,0.402],[0.181,-0.404]],[[257.102,231.956],[-0.097,0.422],[0.141,-0.613]],[[257.345,230.075],[-0.117,0.62],[0.31,-1.637]],[[258.324,225.174],[-0.295,1.639],[0.326,-1.815]],[[259.186,219.71],[-0.209,1.83],[0.106,-0.931]],[[259.108,216.87],[0.024,0.948],[-0.008,-0.312]],[[259.15,215.931],[0.044,0.305],[-0.24,-1.645]],[[258.034,211.082],[0.519,1.591],[-1.058,-3.237]],[[252.321,203.289],[2.606,2.085],[-0.025,-0.02]],[[252.239,203.238],[0.025,0.019],[-0.651,-0.512]],[[250.288,201.704],[0.652,0.509],[-0.119,-0.094]],[[249.909,201.471],[0.097,-0.028],[-0.709,0.202]]],&quot;closed&quot;:true,&quot;fillColor&quot;:[0,0,0,1],&quot;fillRule&quot;:&quot;evenodd&quot;}]}" fill="#ff5e1f" fill-rule="evenodd" stroke-width="0.5"/><path d="M277.85745,183.30897c-1.089,1.037 -1.94808,2.40963 -3.38008,3.18363c-1.343,0.726 -2.59258,1.66757 -4.15558,2.15757c-0.054,-0.334 -0.13504,-0.66539 -0.16104,-1.00039c-0.238,-3.071 -0.51341,-6.20724 -0.71041,-9.28124c-0.073,-1.161 0.01951,-1.14683 1.09851,-1.62183c1.323,-0.583 2.58403,-1.35547 3.74703,-2.21747c0.916,-0.679 1.87045,-1.32592 3.03445,-2.15792c0.036,0.954 0.07485,1.67971 0.09485,2.40071c0.016,0.572 0.01095,1.15043 0.03495,1.72243c0.051,1.217 0.1347,2.46634 0.1957,3.68334c0.007,0.161 -0.04486,0.35412 0.01914,0.48512c0.417,0.844 0.35448,1.74904 0.18248,2.64604z" data-paper-data="{&quot;noHover&quot;:false,&quot;origItem&quot;:[&quot;Path&quot;,{&quot;applyMatrix&quot;:true,&quot;segments&quot;:[[[277.625,180.661],[0.417,0.844],[-0.064,-0.131]],[[277.606,180.182],[0.007,0.161],[-0.061,-1.217]],[[277.426,176.531],[0.051,1.217],[-0.024,-0.572]],[[277.398,174.814],[0.016,0.572],[-0.02,-0.721]],[[277.31,172.417],[0.036,0.954],[-1.164,0.832]],[[274.291,174.579],[0.916,-0.679],[-1.163,0.862]],[[270.581,176.785],[1.323,-0.583],[-1.079,0.475]],[[269.495,178.391],[-0.073,-1.161],[0.197,3.074]],[[270.183,187.605],[-0.238,-3.071],[0.026,0.335]],[[270.341,188.604],[-0.054,-0.334],[1.563,-0.49]],[[274.471,186.443],[-1.343,0.726],[1.432,-0.774]],[[277.816,183.281],[-1.089,1.037],[0.172,-0.897]]],&quot;closed&quot;:true,&quot;fillColor&quot;:[0,0,0,1],&quot;fillRule&quot;:&quot;evenodd&quot;}]}" fill="#a23b13" fill-rule="evenodd" stroke-width="0.5"/><path d="M268.33149,189.67519c-2.992,0.963 -6.11182,1.69492 -9.23782,2.38592c-0.029,-4.053 -0.97296,-7.96749 -0.92796,-11.96449c1.641,-0.26 3.28038,-0.56658 4.89738,-0.77258c1.612,-0.204 3.07453,-0.94936 4.69253,-1.50336c0.349,3.992 0.80187,7.92351 0.57587,11.85451z" data-paper-data="{&quot;noHover&quot;:false,&quot;origItem&quot;:[&quot;Path&quot;,{&quot;applyMatrix&quot;:true,&quot;segments&quot;:[[[267.729,177.863],[0.349,3.992],[-1.618,0.554]],[[263.065,179.374],[1.612,-0.204],[-1.617,0.206]],[[258.202,180.131],[1.641,-0.26],[-0.045,3.997]],[[259.119,192.018],[-0.029,-4.053],[3.126,-0.691]],[[268.295,189.641],[-2.992,0.963],[0.226,-3.931]]],&quot;closed&quot;:true,&quot;fillColor&quot;:[0,0,0,1],&quot;fillRule&quot;:&quot;evenodd&quot;}]}" fill="#a23b13" fill-rule="evenodd" stroke-width="0.5"/><path d="M256.89406,192.42905c-0.363,0.114 -0.76525,0.13986 -1.14725,0.18886c-1.017,0.131 -2.0567,0.28594 -3.0777,0.37494c-0.407,0.036 -0.83456,-0.07869 -1.24856,-0.11169c-0.594,-0.046 -1.1994,-0.08478 -1.8004,-0.05878c-0.469,-0.128 -0.56882,-0.4939 -0.51782,-0.9569c0.213,-2.007 0.4051,-4.06531 0.5951,-6.07431c0.096,-1.01 0.14273,-2.05272 0.24073,-3.06272c0.051,-0.539 0.1916,-1.07572 0.2976,-1.67372c2.004,-0.263 4.00776,-0.52187 5.96176,-0.77787c0.316,0.605 0.42165,1.16926 0.41265,1.80726c-0.012,0.983 0.16382,1.98926 0.25482,2.97426c0.103,1.111 0.24062,2.2611 0.30662,3.3761c0.069,1.167 0.06977,2.35823 0.07077,3.52823c0,0.162 -0.19433,0.41834 -0.34833,0.46634z" data-paper-data="{&quot;noHover&quot;:false,&quot;origItem&quot;:[&quot;Path&quot;,{&quot;applyMatrix&quot;:true,&quot;segments&quot;:[[[257.212,191.923],[0,0.162],[-0.001,-1.17]],[[257.126,188.414],[0.069,1.167],[-0.066,-1.115]],[[256.819,185.078],[0.103,1.111],[-0.091,-0.985]],[[256.58,182.124],[-0.012,0.983],[0.009,-0.638]],[[256.176,180.322],[0.316,0.605],[-1.954,0.256]],[[250.259,181.099],[2.004,-0.263],[-0.106,0.598]],[[249.97,182.767],[0.051,-0.539],[-0.098,1.01]],[[249.746,185.803],[0.096,-1.01],[-0.19,2.009]],[[249.133,191.826],[0.213,-2.007],[-0.051,0.463]],[[249.645,192.779],[-0.469,-0.128],[0.601,-0.026]],[[251.434,192.833],[-0.594,-0.046],[0.414,0.033]],[[252.673,192.943],[-0.407,0.036],[1.021,-0.089]],[[255.727,192.572],[-1.017,0.131],[0.382,-0.049]],[[256.867,192.387],[-0.363,0.114],[0.154,-0.048]]],&quot;closed&quot;:true,&quot;fillColor&quot;:[0,0,0,1],&quot;fillRule&quot;:&quot;evenodd&quot;}]}" fill="#a23b13" fill-rule="evenodd" stroke-width="0.5"/><path d="M228.41153,191.1472c-0.726,-3.513 -0.45635,-7.10508 -0.77535,-10.73308c1.964,0.219 3.85377,0.40889 5.70977,0.61889c1.832,0.208 3.74102,0.13946 5.64702,0.64146c-0.004,3.515 0.21038,7.03988 0.28938,10.56288c-3.692,0.537 -7.26983,-0.24215 -10.87083,-1.09015z" data-paper-data="{&quot;noHover&quot;:false,&quot;origItem&quot;:[&quot;Path&quot;,{&quot;applyMatrix&quot;:true,&quot;segments&quot;:[[[239.247,192.202],[-3.692,0.537],[-0.079,-3.523]],[[238.955,181.707],[-0.004,3.515],[-1.906,-0.502]],[[233.347,181.083],[1.832,0.208],[-1.856,-0.21]],[[227.671,180.45],[1.964,0.219],[0.319,3.628]],[[228.448,191.113],[-0.726,-3.513],[3.601,0.848]]],&quot;closed&quot;:true,&quot;fillColor&quot;:[0,0,0,1],&quot;fillRule&quot;:&quot;evenodd&quot;}]}" fill="#a23b13" fill-rule="evenodd" stroke-width="0.5"/><path d="M226.46221,190.63238c-2.907,-0.444 -5.60829,-1.20212 -8.20429,-2.16512c-0.803,-0.298 -1.70316,-0.38357 -2.55016,-0.56657c-0.246,-0.054 -0.48785,-0.14131 -0.85385,-0.24631c0.094,-0.433 0.18864,-0.82987 0.25864,-1.22387c0.089,-0.5 0.18989,-1.01287 0.22089,-1.51787c0.039,-0.641 0.0458,-1.30468 0.0068,-1.94568c-0.087,-1.408 -0.20233,-2.83756 -0.30433,-4.24456c-0.021,-0.282 -0.00005,-0.56784 -0.00005,-0.97484c1.019,0.235 1.95121,0.4475 2.87621,0.6505c2.322,0.508 4.70298,1.02129 7.02798,1.51829c0.987,0.212 1.09477,0.29758 1.15877,1.32858c0.086,1.376 0.12402,2.78976 0.21202,4.16476c0.087,1.371 0.21712,2.76098 0.30212,4.13298c0.021,0.334 -0.09175,0.6807 -0.15075,1.0897z" data-paper-data="{&quot;noHover&quot;:false,&quot;origItem&quot;:[&quot;Path&quot;,{&quot;applyMatrix&quot;:true,&quot;segments&quot;:[[[226.576,189.509],[0.021,0.334],[-0.085,-1.372]],[[226.262,185.399],[0.087,1.371],[-0.088,-1.375]],[[226.055,181.269],[0.086,1.376],[-0.064,-1.031]],[[224.905,179.952],[0.987,0.212],[-2.325,-0.497]],[[217.934,178.443],[2.322,0.508],[-0.925,-0.203]],[[215.069,177.785],[1.019,0.235],[0,0.407]],[[215.072,178.757],[-0.021,-0.282],[0.102,1.407]],[[215.389,182.978],[-0.087,-1.408],[0.039,0.641]],[[215.383,184.906],[0.039,-0.641],[-0.031,0.505]],[[215.159,186.412],[0.089,-0.5],[-0.07,0.394]],[[214.897,187.629],[0.094,-0.433],[0.366,0.105]],[[215.748,187.871],[-0.246,-0.054],[0.847,0.183]],[[218.283,188.424],[-0.803,-0.298],[2.596,0.963]],[[226.429,190.595],[-2.907,-0.444],[0.059,-0.409]]],&quot;closed&quot;:true,&quot;fillColor&quot;:[0,0,0,1],&quot;fillRule&quot;:&quot;evenodd&quot;}]}" fill="#a23b13" fill-rule="evenodd" stroke-width="0.5"/><path d="M209.79284,185.67574c-0.168,-0.069 -0.31873,-0.34533 -0.36073,-0.54833c-0.129,-0.626 -0.26237,-1.26617 -0.29937,-1.90117c-0.053,-0.927 -0.03456,-1.90434 -0.06456,-2.83134c-0.016,-0.511 -0.05744,-1.05108 -0.13644,-1.55508c-0.253,-1.603 -0.50731,-3.21483 -0.79331,-4.93583c0.3,0.048 0.49033,0.01972 0.57833,0.09972c1.145,1.033 2.56572,1.65682 3.92972,2.32082c0.422,0.205 0.77401,0.49083 0.80001,1.00183c0.086,1.685 0.20557,3.43618 0.24757,5.12118c0.026,1.015 -0.0966,2.04861 -0.0926,3.06461c0.003,0.52 0.11412,1.04285 0.19312,1.68585c-1.427,-0.542 -2.73874,-1.00927 -4.00174,-1.52227z" data-paper-data="{&quot;noHover&quot;:false,&quot;origItem&quot;:[&quot;Path&quot;,{&quot;applyMatrix&quot;:true,&quot;segments&quot;:[[[213.775,187.152],[-1.427,-0.542],[-0.079,-0.643]],[[213.578,185.468],[0.003,0.52],[-0.004,-1.016]],[[213.653,182.419],[0.026,1.015],[-0.042,-1.685]],[[213.416,177.366],[0.086,1.685],[-0.026,-0.511]],[[212.628,176.371],[0.422,0.205],[-1.364,-0.664]],[[208.733,174.051],[1.145,1.033],[-0.088,-0.08]],[[208.158,173.95],[0.3,0.048],[0.286,1.721]],[[208.97,178.872],[-0.253,-1.603],[0.079,0.504]],[[209.118,180.399],[-0.016,-0.511],[0.03,0.927]],[[209.161,183.185],[-0.053,-0.927],[0.037,0.635]],[[209.448,185.08],[-0.129,-0.626],[0.042,0.203]],[[209.804,185.627],[-0.168,-0.069],[1.263,0.513]]],&quot;closed&quot;:true,&quot;fillColor&quot;:[0,0,0,1],&quot;fillRule&quot;:&quot;evenodd&quot;}]}" fill="#a23b13" fill-rule="evenodd" stroke-width="0.5"/><path d="M301.08411,170.34224c-0.231,1.717 -0.63325,3.42452 -0.85825,5.12752c-0.25,1.899 -0.95582,3.70231 -1.18182,5.59631c-0.11,0.91 -0.54243,1.78503 -0.73843,2.68903c-0.294,1.351 -0.84758,2.60859 -1.32158,3.89559c-0.742,2.017 -1.7234,3.92642 -2.5864,5.88242c-0.565,1.28 -1.07253,2.58823 -1.61553,3.88023c-0.477,1.134 -0.97376,2.26247 -1.45976,3.39347c-0.065,-0.011 -0.13137,-0.02197 -0.19737,-0.03297c-0.035,-0.231 -0.09209,-0.46099 -0.10109,-0.69199c-0.054,-1.398 -0.47548,-2.70691 -0.94848,-4.00491c-0.538,-1.475 -1.10314,-2.94197 -1.62214,-4.42497c-0.856,-2.443 -2.38995,-4.40945 -4.45295,-5.92845c-1.054,-0.777 -2.30198,-1.28155 -3.56698,-1.64355c-0.413,-0.118 -0.74399,-0.28997 -0.82299,-0.70497c-0.22,-1.164 -0.42667,-2.34487 -0.59067,-3.51887c-0.047,-0.337 0.09324,-0.69974 0.08224,-1.04774c-0.082,-2.375 -0.11993,-4.78733 -0.29593,-7.15633c-0.134,-1.791 -0.4987,-3.57943 -0.6687,-5.37043c-0.169,-1.788 -0.17794,-3.60033 -0.32394,-5.39233c-0.104,-1.274 -0.33808,-2.5399 -0.46308,-3.8129c-0.129,-1.309 -0.18362,-2.62506 -0.28462,-3.93706c-0.066,-0.859 -0.15523,-1.71794 -0.24323,-2.66994c1.183,-0.558 2.22023,-1.17764 3.33623,-1.53564c0.992,-0.318 2.0796,-0.45358 3.1276,-0.48358c1.184,-0.035 2.37954,0.19201 3.56854,0.20201c1.509,0.012 2.90847,0.54401 4.34347,0.86301c1.032,0.23 1.95811,0.78291 2.90711,1.26691c1.205,0.611 2.07148,1.61421 3.17148,2.32121c0.154,0.1 0.29704,0.25441 0.38604,0.41641c0.671,1.221 1.36509,2.43757 1.98009,3.68557c0.294,0.595 0.49535,1.25223 0.64535,1.90123c0.253,1.092 0.48854,2.19766 0.64054,3.30766c0.36,2.627 0.51224,5.27507 0.15524,7.92807z" data-paper-data="{&quot;noHover&quot;:false,&quot;origItem&quot;:[&quot;Path&quot;,{&quot;applyMatrix&quot;:true,&quot;segments&quot;:[[[300.894,162.45],[0.36,2.627],[-0.152,-1.11]],[[300.259,159.147],[0.253,1.092],[-0.15,-0.649]],[[299.617,157.248],[0.294,0.595],[-0.615,-1.248]],[[297.644,153.566],[0.671,1.221],[-0.089,-0.162]],[[297.259,153.15],[0.154,0.1],[-1.1,-0.707]],[[294.095,150.831],[1.205,0.611],[-0.949,-0.484]],[[291.194,149.565],[1.032,0.23],[-1.435,-0.319]],[[286.859,148.702],[1.509,0.012],[-1.189,-0.01]],[[283.297,148.499],[1.184,-0.035],[-1.048,0.03]],[[280.175,148.981],[0.992,-0.318],[-1.116,0.358]],[[276.845,150.514],[1.183,-0.558],[0.088,0.952]],[[277.09,153.183],[-0.066,-0.859],[0.101,1.312]],[[277.378,157.118],[-0.129,-1.309],[0.125,1.273]],[[277.845,160.928],[-0.104,-1.274],[0.146,1.792]],[[278.177,166.312],[-0.169,-1.788],[0.17,1.791]],[[278.854,171.666],[-0.134,-1.791],[0.176,2.369]],[[279.148,178.789],[-0.082,-2.375],[0.011,0.348]],[[279.064,179.833],[-0.047,-0.337],[0.164,1.174]],[[279.647,183.341],[-0.22,-1.164],[0.079,0.415]],[[280.467,184.043],[-0.413,-0.118],[1.265,0.362]],[[284.021,185.678],[-1.054,-0.777],[2.063,1.519]],[[288.455,191.602],[-0.856,-2.443],[0.519,1.483]],[[290.073,196.027],[-0.538,-1.475],[0.473,1.298]],[[291.02,200.032],[-0.054,-1.398],[0.009,0.231]],[[291.121,200.724],[-0.035,-0.231],[0.066,0.011]],[[291.318,200.757],[-0.065,-0.011],[0.486,-1.131]],[[292.774,197.364],[-0.477,1.134],[0.543,-1.292]],[[294.384,193.485],[-0.565,1.28],[0.863,-1.956]],[[296.958,187.608],[-0.742,2.017],[0.474,-1.287]],[[298.27,183.72],[-0.294,1.351],[0.196,-0.904]],[[299.002,181.039],[-0.11,0.91],[0.226,-1.894]],[[300.176,175.466],[-0.25,1.899],[0.225,-1.703]],[[301.037,170.359],[-0.231,1.717],[0.357,-2.653]]],&quot;closed&quot;:true,&quot;fillColor&quot;:[0,0,0,1],&quot;fillRule&quot;:&quot;evenodd&quot;}]}" fill="#e61c1c" fill-rule="evenodd" stroke-width="0.5"/><path d="M248.87134,178.73814c-0.096,1.146 -0.28385,2.2942 -0.40285,3.4402c-0.093,0.88 -0.1156,1.79345 -0.1826,2.67645c-0.123,1.589 -0.14672,3.24552 -0.43772,4.80452c-0.247,1.328 -0.25099,2.66233 -0.39199,3.98533c-0.117,1.1 -0.36405,2.18752 -0.52705,3.28352c-0.056,0.375 -0.02803,0.76218 -0.06803,1.14018c-0.122,1.168 -0.17392,2.35439 -0.41492,3.49839c-0.355,1.685 -0.32211,3.42223 -0.82411,5.09123c-0.281,0.937 -0.30011,1.95603 -0.42211,2.93903c-0.111,0.888 -0.16667,1.78501 -0.31267,2.66801c-0.093,0.564 -0.33181,1.104 -0.45781,1.665c-0.084,0.37 -0.09019,0.758 -0.12419,1.138c-0.044,0.494 -0.03777,1.00498 -0.50577,1.54598c-0.422,-1.96 -0.87557,-3.74714 -1.18057,-5.55814c-0.334,-1.986 -0.53814,-3.99536 -0.79314,-5.99536c-0.178,-1.398 -0.4064,-2.79361 -0.5164,-4.19761c-0.162,-2.05 -0.25769,-4.10833 -0.35869,-6.16333c-0.13,-2.632 -0.27705,-5.29273 -0.38605,-7.92573c-0.108,-2.623 -0.14772,-5.30851 -0.29072,-7.92951c-0.069,-1.276 -0.32874,-2.54531 -0.41574,-3.82031c-0.221,-3.231 -0.32995,-6.46735 -0.33495,-9.70935c-0.003,-2.132 0.41403,-4.20489 0.60003,-6.30489c0.081,-0.91 0.42608,-1.81732 0.76808,-2.67832c0.567,-1.43 1.79058,-2.13643 3.18958,-2.57943c0.274,-0.087 0.55928,-0.13801 0.80428,-0.19801c1.188,0.507 2.20405,1.16728 2.96305,2.23828c0.729,1.028 1.15906,2.12042 1.27606,3.35442c0.025,0.255 0.00046,0.54608 0.11446,0.75608c0.867,1.583 0.58962,3.31179 0.67262,4.99279c0.031,0.605 0.01517,1.21232 0.01017,1.81832c-0.008,1.004 -0.01669,2.00872 -0.03669,3.01172c-0.005,0.287 -0.02336,0.57722 -0.07036,0.85922c-0.264,1.6 -0.58729,3.19447 -0.78829,4.80247c-0.139,1.105 -0.06093,2.23885 -0.15493,3.35085z" data-paper-data="{&quot;noHover&quot;:false,&quot;origItem&quot;:[&quot;Path&quot;,{&quot;applyMatrix&quot;:true,&quot;segments&quot;:[[[249.006,175.433],[-0.139,1.105],[0.201,-1.608]],[[249.798,170.632],[-0.264,1.6],[0.047,-0.282]],[[249.869,169.773],[-0.005,0.287],[0.02,-1.003]],[[249.908,166.762],[-0.008,1.004],[0.005,-0.606]],[[249.899,164.944],[0.031,0.605],[-0.083,-1.681]],[[249.23,159.952],[0.867,1.583],[-0.114,-0.21]],[[249.116,159.196],[0.025,0.255],[-0.117,-1.234]],[[247.843,155.842],[0.729,1.028],[-0.759,-1.071]],[[244.885,153.604],[1.188,0.507],[-0.245,0.06]],[[244.082,153.802],[0.274,-0.087],[-1.399,0.443]],[[240.898,156.381],[0.567,-1.43],[-0.342,0.861]],[[240.132,159.059],[0.081,-0.91],[-0.186,2.1]],[[239.536,165.363],[-0.003,-2.132],[0.005,3.242]],[[239.88,175.069],[-0.221,-3.231],[0.087,1.275]],[[240.303,178.885],[-0.069,-1.276],[0.143,2.621]],[[240.611,186.755],[-0.108,-2.623],[0.109,2.633]],[[240.969,194.653],[-0.13,-2.632],[0.101,2.055]],[[241.32,200.814],[-0.162,-2.05],[0.11,1.404]],[[241.833,205.011],[-0.178,-1.398],[0.255,2]],[[242.623,211.006],[-0.334,-1.986],[0.305,1.811]],[[243.801,216.564],[-0.422,-1.96],[0.468,-0.541]],[[244.306,215.018],[-0.044,0.494],[0.034,-0.38]],[[244.43,213.88],[-0.084,0.37],[0.126,-0.561]],[[244.887,212.215],[-0.093,0.564],[0.146,-0.883]],[[245.199,209.547],[-0.111,0.888],[0.122,-0.983]],[[245.62,206.608],[-0.281,0.937],[0.502,-1.669]],[[246.441,201.517],[-0.355,1.685],[0.241,-1.144]],[[246.853,198.019],[-0.122,1.168],[0.04,-0.378]],[[246.92,196.879],[-0.056,0.375],[0.163,-1.096]],[[247.441,193.597],[-0.117,1.1],[0.141,-1.323]],[[247.82,189.618],[-0.247,1.328],[0.291,-1.559]],[[248.236,184.858],[-0.123,1.589],[0.067,-0.883]],[[248.429,182.209],[-0.093,0.88],[0.119,-1.146]],[[248.844,178.78],[-0.096,1.146],[0.094,-1.112]]],&quot;closed&quot;:true,&quot;fillColor&quot;:[0,0,0,1],&quot;fillRule&quot;:&quot;evenodd&quot;}]}" fill="#e61c1c" fill-rule="evenodd" stroke-width="0.5"/><path d="M206.08665,186.6704c-0.807,0.39 -1.46287,0.9519 -2.07987,1.6529c-1.054,1.195 -1.57635,2.53215 -1.78635,4.06015c-0.206,1.495 -0.54449,2.97623 -0.73949,4.47223c-0.125,0.952 -0.33285,1.984 -0.09585,2.872c0.351,1.314 -0.15843,2.5567 0.03757,3.8507c0.312,2.055 0.47274,4.12931 0.84974,6.18231c0.34,1.857 0.48215,3.75119 0.70415,5.62919c0.018,0.153 -0.02127,0.31206 -0.05127,0.68606c-0.633,-0.688 -1.21089,-1.21164 -1.66289,-1.82564c-1.064,-1.448 -2.10211,-2.91948 -3.09111,-4.41948c-0.529,-0.802 -0.95034,-1.67786 -1.40434,-2.52686c-1.107,-2.066 -2.21404,-4.13734 -3.31604,-6.20634c-0.045,-0.087 -0.10343,-0.16805 -0.13143,-0.26005c-0.748,-2.457 -2.33847,-4.51568 -3.36847,-6.83768c-0.779,-1.757 -1.76794,-3.44556 -2.47994,-5.22656c-0.629,-1.572 -1.07221,-3.24929 -1.50821,-4.89029c-0.52,-1.956 -0.94777,-3.96123 -1.41477,-5.93123c-0.666,-2.806 -1.17905,-5.64351 -1.16905,-8.55051c0.008,-2.323 -0.02016,-4.6619 0.37684,-6.9459c0.308,-1.762 0.8135,-3.51536 1.4305,-5.19736c0.459,-1.251 1.18399,-2.42583 1.90399,-3.55983c0.816,-1.285 1.88812,-2.38447 3.24712,-3.10847c1.5,-0.799 3.03826,-1.54672 4.59426,-2.22972c0.537,-0.236 1.19064,-0.287 1.78964,-0.287c0.883,0 1.7699,0.12426 2.6539,0.19126c0.159,0.012 0.3207,0.01608 0.4787,0.00408c1.051,-0.085 2.03342,0.16573 2.98942,0.58873c0.925,0.409 1.87432,0.77412 2.81032,1.15712c-0.041,1.411 -0.28416,2.66461 0.00584,3.92161c0.021,0.09 0.02814,0.20105 -0.00586,0.28405c-0.406,0.983 -0.02528,1.97564 -0.00128,2.95564c0.039,1.593 0.24021,3.1839 0.35121,4.7759c0.029,0.409 0.01112,0.82458 -0.01988,1.23458c-0.129,1.696 0.30246,3.36415 0.29646,5.05315c-0.002,0.441 0.06005,0.85082 -0.37795,1.21282c-0.325,0.269 -0.35621,0.7335 0.03779,1.0985c0.376,0.348 0.50805,0.78892 0.51005,1.30692c0.003,1.259 0.24516,2.4955 0.53116,3.7225c0.194,0.835 0.14109,1.73298 0.30509,2.57798c0.253,1.298 0.36668,2.60521 0.37268,3.93221c0.005,1.002 0.34457,2.01382 0.52657,3.01582c0.04,0.217 0.03736,0.44335 0.05536,0.66335c-0.744,0.305 -1.46928,0.56916 -2.15428,0.90116z" data-paper-data="{&quot;noHover&quot;:false,&quot;origItem&quot;:[&quot;Path&quot;,{&quot;applyMatrix&quot;:true,&quot;segments&quot;:[[[208.193,185.755],[-0.744,0.305],[-0.018,-0.22]],[[208.137,185.094],[0.04,0.217],[-0.182,-1.002]],[[207.609,182.09],[0.005,1.002],[-0.006,-1.327]],[[207.239,178.174],[0.253,1.298],[-0.164,-0.845]],[[206.938,175.605],[0.194,0.835],[-0.286,-1.227]],[[206.414,171.892],[0.003,1.259],[-0.002,-0.518]],[[205.907,170.588],[0.376,0.348],[-0.394,-0.365]],[[205.871,169.491],[-0.325,0.269],[0.438,-0.362]],[[206.25,168.279],[-0.002,0.441],[0.006,-1.689]],[[205.96,163.23],[-0.129,1.696],[0.031,-0.41]],[[205.981,161.996],[0.029,0.409],[-0.111,-1.592]],[[205.634,157.222],[0.039,1.593],[-0.024,-0.98]],[[205.637,154.267],[-0.406,0.983],[0.034,-0.083]],[[205.643,153.983],[0.021,0.09],[-0.29,-1.257]],[[205.639,150.062],[-0.041,1.411],[-0.936,-0.383]],[[202.833,148.906],[0.925,0.409],[-0.956,-0.423]],[[199.848,148.318],[1.051,-0.085],[-0.158,0.012]],[[199.37,148.314],[0.159,0.012],[-0.884,-0.067]],[[196.72,148.123],[0.883,0],[-0.599,0]],[[194.933,148.41],[0.537,-0.236],[-1.556,0.683]],[[190.346,150.639],[1.5,-0.799],[-1.359,0.724]],[[187.105,153.746],[0.816,-1.285],[-0.72,1.134]],[[185.206,157.304],[0.459,-1.251],[-0.617,1.682]],[[183.782,162.498],[0.308,-1.762],[-0.397,2.284]],[[183.414,169.437],[0.008,-2.323],[-0.01,2.907]],[[184.595,177.969],[-0.666,-2.806],[0.467,1.97]],[[186.012,183.874],[-0.52,-1.956],[0.436,1.641]],[[187.51,188.742],[-0.629,-1.572],[0.712,1.781]],[[189.973,193.955],[-0.779,-1.757],[1.03,2.322]],[[193.326,200.788],[-0.748,-2.457],[0.028,0.092]],[[193.457,201.048],[-0.045,-0.087],[1.102,2.069]],[[196.765,207.254],[-1.107,-2.066],[0.454,0.849]],[[198.167,209.781],[-0.529,-0.802],[0.989,1.5]],[[201.254,214.201],[-1.064,-1.448],[0.452,0.614]],[[202.915,216.027],[-0.633,-0.688],[0.03,-0.374]],[[202.966,215.341],[0.018,0.153],[-0.222,-1.878]],[[202.261,209.712],[0.34,1.857],[-0.377,-2.053]],[[201.41,203.53],[0.312,2.055],[-0.196,-1.294]],[[201.37,199.68],[0.351,1.314],[-0.237,-0.888]],[[201.463,196.809],[-0.125,0.952],[0.195,-1.496]],[[202.194,192.341],[-0.206,1.495],[0.21,-1.528]],[[203.967,188.293],[-1.054,1.195],[0.617,-0.701]],[[206.041,186.65],[-0.807,0.39],[0.685,-0.332]]],&quot;closed&quot;:true,&quot;fillColor&quot;:[0,0,0,1],&quot;fillRule&quot;:&quot;evenodd&quot;}]}" fill="#e61c1c" fill-rule="evenodd" stroke-width="0.5"/><path d="M229.42246,92.76321c1.414,-0.498 2.72113,-1.26802 4.22913,-1.57702c1.849,-0.379 3.74598,-0.76145 5.62298,-0.94945c0.412,-0.041 0.85797,-0.08437 1.25697,-0.00737c1.575,0.306 3.18564,0.49521 4.78364,0.61721c0.399,0.031 0.78399,0.26883 1.17499,0.40683c1.751,0.615 3.44783,1.35028 4.91483,2.68928c-0.482,0.529 -1.08223,0.88116 -1.70223,1.16016c-1.524,0.683 -3.05149,1.3401 -4.76149,1.5101c-1.138,0.112 -2.25356,0.56787 -3.38156,0.81387c-2.116,0.462 -4.31638,0.54121 -6.47238,0.26421c-0.646,-0.083 -1.31753,-0.14121 -1.96453,-0.17521c-1.846,-0.097 -3.51588,-0.80824 -5.21188,-1.40124c-0.6,-0.21 -1.16566,-0.52445 -1.73866,-0.80545c-0.131,-0.064 -0.22812,-0.20032 -0.34512,-0.30632c1.113,-0.941 2.25432,-1.76861 3.59532,-2.23961z" data-paper-data="{&quot;noHover&quot;:false,&quot;origItem&quot;:[&quot;Path&quot;,{&quot;applyMatrix&quot;:true,&quot;segments&quot;:[[[225.877,94.999],[1.113,-0.941],[0.117,0.106]],[[226.222,95.304],[-0.131,-0.064],[0.573,0.281]],[[227.96,96.105],[-0.6,-0.21],[1.696,0.593]],[[233.165,97.489],[-1.846,-0.097],[0.647,0.034]],[[235.122,97.655],[-0.646,-0.083],[2.156,0.277]],[[241.527,97.389],[-2.116,0.462],[1.128,-0.246]],[[244.895,96.594],[-1.138,0.112],[1.71,-0.17]],[[249.653,95.098],[-1.524,0.683],[0.62,-0.279]],[[251.355,93.943],[-0.482,0.529],[-1.467,-1.339]],[[246.443,91.27],[1.751,0.615],[-0.391,-0.138]],[[245.27,90.868],[0.399,0.031],[-1.598,-0.122]],[[240.509,90.274],[1.575,0.306],[-0.399,-0.077]],[[239.266,90.286],[0.412,-0.041],[-1.877,0.188]],[[233.695,91.211],[1.849,-0.379],[-1.508,0.309]],[[229.472,92.77],[1.414,-0.498],[-1.341,0.471]]],&quot;closed&quot;:true,&quot;fillColor&quot;:[0,0,0,1],&quot;fillRule&quot;:&quot;evenodd&quot;}]}" fill="#e61c1c" fill-rule="evenodd" stroke-width="0.5"/><path d="M256.22513,178.71034c-1.812,0.227 -3.63727,0.42797 -5.45227,0.62697c-0.117,0.012 -0.24473,-0.06371 -0.43873,-0.12071c0,-0.343 -0.06206,-0.78688 -0.03306,-1.13388c0.182,-2.172 0.25283,-4.35574 0.58483,-6.50574c0.456,-2.949 0.40008,-5.87469 0.26608,-8.83069c-0.04,-0.866 -0.09837,-1.71988 -0.15237,-2.58388c-0.029,-0.471 -0.08327,-0.88825 -0.38827,-1.32725c-0.268,-0.387 -0.22426,-0.97636 -0.34426,-1.47336c-0.598,-2.475 -1.94742,-4.24061 -4.43842,-5.08161c-0.281,-0.094 -0.52032,-0.28512 -0.90732,-0.50612c-0.138,0.031 -0.43561,0.12086 -0.74361,0.16986c-2.343,0.371 -3.88692,1.59361 -4.60592,3.89761c-0.322,1.034 -0.79819,1.96923 -0.93319,3.06323c-0.062,0.503 -0.19972,0.98448 -0.27372,1.48548c-0.113,0.76 -0.27529,1.51102 -0.30029,2.27402c-0.052,1.568 -0.08431,3.13162 -0.04231,4.69962c0.076,2.865 0.17463,5.72712 0.31863,8.59012c0.043,0.855 0.26094,1.69963 0.37594,2.55363c0.056,0.411 0.0409,0.92785 0.0679,1.39685c-0.288,0.06 -0.58561,0.22374 -0.76461,0.13974c-0.839,-0.388 -1.71146,-0.1943 -2.56946,-0.2323c-0.861,-0.038 -1.7211,-0.18083 -2.5801,-0.27583c-1.011,-0.113 -2.02936,-0.21164 -3.03736,-0.34664c-0.668,-0.089 -1.3282,-0.24699 -1.9942,-0.35299c-1.2,-0.192 -2.40884,-0.37172 -3.61084,-0.55572c-0.19,-0.029 -0.37967,-0.06159 -0.56867,-0.09559c-1.262,-0.233 -2.52692,-0.47195 -3.78892,-0.70595c-0.157,-0.029 -0.32442,-0.03748 -0.47042,-0.09648c-1.664,-0.664 -3.32238,-1.36188 -4.99538,-2.00388c-1.332,-0.512 -2.52164,-1.2577 -3.62264,-2.1417c-0.723,-0.581 -1.46347,-1.16627 -2.08147,-1.85127c-0.363,-0.402 -0.63983,-0.99018 -0.71383,-1.52518c-0.215,-1.56 -0.35077,-3.14128 -0.44077,-4.71428c-0.141,-2.427 -0.21109,-4.86735 -0.32909,-7.29635c-0.05,-1.049 -0.2268,-2.10148 -0.2038,-3.14748c0.06,-2.595 0.21011,-5.19856 0.30811,-7.79256c0.02,-0.513 -0.05737,-1.03288 -0.03137,-1.54588c0.12,-2.343 0.25559,-4.69281 0.40359,-7.03281c0.032,-0.507 0.14796,-1.00962 0.23896,-1.60162c0.826,0.714 1.50326,1.53726 2.44826,1.89226c0.38,0.142 0.60151,0.41312 0.96951,0.60412c1.937,1.004 3.98333,1.67293 6.14533,2.02393c0.749,0.122 1.50567,0.36503 2.18767,0.69703c1.158,0.562 2.4047,0.70374 3.6357,0.92574c2.178,0.391 4.36607,0.75865 6.55107,1.11365c1.642,0.266 3.29296,0.59173 4.94796,0.70373c3.306,0.224 6.65232,0.18692 9.96432,-0.02108c1.11,-0.07 2.23673,-0.00543 3.34973,-0.04243c0.544,-0.018 1.09002,-0.12091 1.63202,-0.18891c0.541,-0.067 1.08434,-0.13989 1.62534,-0.20389c0.472,-0.055 0.95549,-0.06116 1.41949,-0.15316c1.533,-0.303 3.05929,-0.66719 4.59629,-0.94119c1.928,-0.343 3.73824,-1.06925 5.57624,-1.68125c1.387,-0.462 2.72986,-1.10187 3.94086,-1.95987c0.102,-0.073 0.23409,-0.10888 0.35609,-0.14588c1.639,-0.501 3.03747,-1.41735 4.36547,-2.47335c0.461,-0.367 1.02411,-0.60385 1.53411,-0.91185c0.135,-0.08 0.24697,-0.19904 0.44697,-0.36504c0.368,1.11 0.72025,2.1725 0.63825,3.3455c-0.036,0.497 0.10792,1.00664 0.15492,1.51164c0.139,1.497 0.26048,3.00236 0.41248,4.49736c0.095,0.927 0.24429,1.8517 0.35529,2.7777c0.053,0.437 0.14851,0.8888 0.09951,1.3188c-0.166,1.459 0.06722,2.88817 0.28022,4.32017c0.089,0.599 0.08928,1.21268 0.15328,1.81668c0.2,1.875 0.43196,3.75525 0.60796,5.63225c0.084,0.896 0.06252,1.80583 0.09852,2.70683c0.043,1.092 0.07306,2.1904 0.15306,3.2804c0.055,0.736 0.19621,1.46771 0.27521,2.20171c0.069,0.634 0.10319,1.27233 0.15819,1.98733c-0.703,-0.03 -1.16761,0.23753 -1.58761,0.67753c-1.054,1.103 -2.32745,1.92107 -3.68345,2.60907c-0.601,0.305 -1.16931,0.68522 -1.78531,0.95322c-1.382,0.601 -2.7845,1.16992 -4.1845,1.72692c-0.741,0.295 -1.48426,0.65962 -2.25826,0.78662c-1.112,0.182 -2.23941,0.33234 -3.37141,0.41534c-1.311,0.094 -2.61014,0.38001 -3.91614,0.54301z" data-paper-data="{&quot;noHover&quot;:false,&quot;origItem&quot;:[&quot;Path&quot;,{&quot;applyMatrix&quot;:true,&quot;segments&quot;:[[[260.108,178.13],[-1.311,0.094],[1.132,-0.083]],[[263.476,177.718],[-1.112,0.182],[0.774,-0.127]],[[265.732,176.934],[-0.741,0.295],[1.4,-0.557]],[[269.913,175.212],[-1.382,0.601],[0.616,-0.268]],[[271.697,174.261],[-0.601,0.305],[1.356,-0.688]],[[275.378,171.657],[-1.054,1.103],[0.42,-0.44]],[[276.965,170.981],[-0.703,-0.03],[-0.055,-0.715]],[[276.806,168.996],[0.069,0.634],[-0.079,-0.734]],[[276.53,166.797],[0.055,0.736],[-0.08,-1.09]],[[276.376,163.521],[0.043,1.092],[-0.036,-0.901]],[[276.277,160.818],[0.084,0.896],[-0.176,-1.877]],[[275.669,155.194],[0.2,1.875],[-0.064,-0.604]],[[275.516,153.38],[0.089,0.599],[-0.213,-1.432]],[[275.237,149.066],[-0.166,1.459],[0.049,-0.43]],[[275.138,147.749],[0.053,0.437],[-0.111,-0.926]],[[274.784,144.975],[0.095,0.927],[-0.152,-1.495]],[[274.374,140.483],[0.139,1.497],[-0.047,-0.505]],[[274.22,138.973],[-0.036,0.497],[0.082,-1.173]],[[273.584,135.631],[0.368,1.11],[-0.2,0.166]],[[273.137,135.996],[0.135,-0.08],[-0.51,0.308]],[[271.603,136.908],[0.461,-0.367],[-1.328,1.056]],[[267.238,139.382],[1.639,-0.501],[-0.122,0.037]],[[266.882,139.528],[0.102,-0.073],[-1.211,0.858]],[[262.942,141.489],[1.387,-0.462],[-1.838,0.612]],[[257.369,143.174],[1.928,-0.343],[-1.537,0.274]],[[252.778,144.12],[1.533,-0.303],[-0.464,0.092]],[[251.361,144.275],[0.472,-0.055],[-0.541,0.064]],[[249.739,144.481],[0.541,-0.067],[-0.542,0.068]],[[248.111,144.672],[0.544,-0.018],[-1.113,0.037]],[[244.772,144.718],[1.11,-0.07],[-3.312,0.208]],[[234.842,144.734],[3.306,0.224],[-1.655,-0.112]],[[229.903,144.024],[1.642,0.266],[-2.185,-0.355]],[[223.358,142.904],[2.178,0.391],[-1.231,-0.222]],[[219.724,141.976],[1.158,0.562],[-0.682,-0.332]],[[217.537,141.278],[0.749,0.122],[-2.162,-0.351]],[[211.393,139.252],[1.937,1.004],[-0.368,-0.191]],[[210.338,138.596],[0.38,0.142],[-0.945,-0.355]],[[207.975,136.756],[0.826,0.714],[-0.091,0.592]],[[207.737,138.356],[0.032,-0.507],[-0.148,2.34]],[[207.337,145.381],[0.12,-2.343],[-0.026,0.513]],[[207.369,146.925],[0.02,-0.513],[-0.098,2.594]],[[207.063,154.707],[0.06,-2.595],[-0.023,1.046]],[[207.267,157.85],[-0.05,-1.049],[0.118,2.429]],[[207.595,165.136],[-0.141,-2.427],[0.09,1.573]],[[208.034,169.844],[-0.215,-1.56],[0.074,0.535]],[[208.747,171.367],[-0.363,-0.402],[0.618,0.685]],[[210.827,173.215],[-0.723,-0.581],[1.101,0.884]],[[214.447,175.352],[-1.332,-0.512],[1.673,0.642]],[[219.438,177.35],[-1.664,-0.664],[0.146,0.059]],[[219.908,177.446],[-0.157,-0.029],[1.262,0.234]],[[223.693,178.148],[-1.262,-0.233],[0.189,0.034]],[[224.261,178.243],[-0.19,-0.029],[1.202,0.184]],[[227.867,178.795],[-1.2,-0.192],[0.666,0.106]],[[229.858,179.146],[-0.668,-0.089],[1.008,0.135]],[[232.89,179.49],[-1.011,-0.113],[0.859,0.095]],[[235.465,179.764],[-0.861,-0.038],[0.858,0.038]],[[238.029,179.995],[-0.839,-0.388],[0.179,0.084]],[[238.792,179.855],[-0.288,0.06],[-0.027,-0.469]],[[238.709,178.557],[0.056,0.411],[-0.115,-0.854]],[[238.331,176.003],[0.043,0.855],[-0.144,-2.863]],[[238.003,167.41],[0.076,2.865],[-0.042,-1.568]],[[238.033,162.703],[-0.052,1.568],[0.025,-0.763]],[[238.324,160.419],[-0.113,0.76],[0.074,-0.501]],[[238.591,158.92],[-0.062,0.503],[0.135,-1.094]],[[239.533,155.81],[-0.322,1.034],[0.719,-2.304]],[[244.195,151.897],[-2.343,0.371],[0.308,-0.049]],[[244.943,151.729],[-0.138,0.031],[0.387,0.221]],[[245.857,152.239],[-0.281,-0.094],[2.491,0.841]],[[250.317,157.359],[-0.598,-2.475],[0.12,0.497]],[[250.661,158.841],[-0.268,-0.387],[0.305,0.439]],[[251.048,160.175],[-0.029,-0.471],[0.054,0.864]],[[251.196,162.77],[-0.04,-0.866],[0.134,2.956]],[[250.913,171.619],[0.456,-2.949],[-0.332,2.15]],[[250.32,178.129],[0.182,-2.172],[-0.029,0.347]],[[250.316,179.17],[0,-0.343],[0.194,0.057]],[[250.754,179.291],[-0.117,0.012],[1.815,-0.199]],[[256.197,178.669],[-1.812,0.227],[1.306,-0.163]]],&quot;closed&quot;:true,&quot;fillColor&quot;:[0,0,0,1],&quot;fillRule&quot;:&quot;evenodd&quot;}]}" fill="#ffffff" fill-rule="evenodd" stroke-width="0.5"/><path d="M208.57688,130.75873c0.454,-2.814 0.97136,-5.62786 1.48336,-8.43186c0.086,-0.471 0.28383,-0.92321 0.39383,-1.39021c0.329,-1.404 0.55412,-2.84507 0.97712,-4.21807c0.784,-2.542 1.58806,-5.09933 2.87706,-7.44833c0.6,-1.097 1.22677,-2.18704 1.81677,-3.28904c0.188,-0.352 0.451,-0.69377 0.262,-1.16977c-0.064,-0.162 0.04157,-0.48793 0.18157,-0.61793c0.752,-0.7 1.05605,-1.72035 1.81105,-2.43035c0.721,-0.678 1.32445,-1.48796 1.98045,-2.23596c0.424,-0.484 0.82743,-0.99435 1.28643,-1.44135c0.708,-0.69 1.46217,-1.34037 2.27417,-2.07837c0.398,0.202 0.73181,0.38742 1.07681,0.54442c1.368,0.622 2.70418,1.3604 4.12718,1.8124c1.486,0.472 3.0577,0.82853 4.6087,0.93253c2.712,0.182 5.46138,0.46223 8.17338,-0.14877c1.12,-0.252 2.28487,-0.33493 3.40287,-0.59193c0.612,-0.14 1.20361,-0.39107 1.81861,-0.56207c1.796,-0.499 3.51172,-1.24199 5.14172,-2.15499c0.359,-0.201 0.73527,-0.37235 1.14827,-0.58135c2.3,1.497 4.29828,3.40407 6.15528,5.44207c0.861,0.944 1.66873,1.94652 2.49973,2.91952c0.228,0.268 0.48815,0.51562 0.68515,0.80462c0.423,0.622 0.73223,1.28461 1.33423,1.83261c0.585,0.533 0.9831,1.36719 1.2381,2.18819c0.064,0.207 0.15648,0.41512 0.27448,0.59712c0.606,0.926 1.30494,1.80959 1.81694,2.78359c0.558,1.059 0.97033,2.20519 1.40733,3.32419c0.279,0.714 0.49843,1.45592 0.72943,2.18692c0.27,0.856 0.52211,1.72145 0.78711,2.57845c0.396,1.285 0.80849,2.57217 1.18849,3.86217c0.171,0.579 0.29055,1.17562 0.41455,1.76762c0.375,1.774 0.74304,3.55707 1.09904,5.33607c0.055,0.276 -0.0364,0.58707 0.0416,0.85207c0.148,0.499 0.59727,0.9738 0.04427,1.4828c-0.384,0.354 -0.45388,0.98993 -1.11088,1.12093c-0.288,0.058 -0.55354,0.32508 -0.78854,0.53908c-1.605,1.476 -3.40973,2.63852 -5.43473,3.46652c-0.947,0.387 -1.83394,0.93152 -2.76294,1.36852c-0.433,0.204 -0.9065,0.32757 -1.3615,0.48757c-1.061,0.375 -2.11002,0.80661 -3.18902,1.11761c-2.473,0.712 -5.00355,1.22396 -7.56455,1.50896c-1.112,0.123 -2.23011,0.25517 -3.34411,0.34917c-0.447,0.038 -0.90458,-0.02034 -1.35558,-0.01534c-0.573,0.006 -1.16643,-0.04834 -1.71743,0.06866c-1.128,0.239 -2.24296,0.17859 -3.37196,0.05659c-0.789,-0.086 -1.60898,-0.10218 -2.39498,-0.00818c-0.975,0.117 -1.92986,0.03614 -2.89086,-0.06686c-1.283,-0.138 -2.58541,-0.19514 -3.85841,-0.39114c-2.538,-0.388 -5.06915,-0.8976 -7.60815,-1.2676c-1.795,-0.262 -3.48929,-0.88052 -5.21629,-1.37052c-0.925,-0.262 -1.8656,-0.48491 -2.7956,-0.73391c-2.558,-0.684 -4.87769,-1.79257 -6.69169,-3.80057c-0.373,-0.413 -0.90803,-0.68409 -1.49103,-1.10909c0.118,-1.171 0.18219,-2.48841 0.39119,-3.77741z" data-paper-data="{&quot;noHover&quot;:false,&quot;origItem&quot;:[&quot;Path&quot;,{&quot;applyMatrix&quot;:true,&quot;segments&quot;:[[[208.231,134.515],[0.118,-1.171],[0.583,0.425]],[[209.721,135.622],[-0.373,-0.413],[1.814,2.008]],[[216.407,139.414],[-2.558,-0.684],[0.93,0.249]],[[219.2,140.145],[-0.925,-0.262],[1.727,0.49]],[[224.41,141.51],[-1.795,-0.262],[2.539,0.37]],[[232.006,142.771],[-2.538,-0.388],[1.273,0.196]],[[235.857,143.16],[-1.283,-0.138],[0.961,0.103]],[[238.742,143.226],[-0.975,0.117],[0.786,-0.094]],[[241.132,143.234],[-0.789,-0.086],[1.129,0.122]],[[244.497,143.178],[-1.128,0.239],[0.551,-0.117]],[[246.211,143.11],[-0.573,0.006],[0.451,-0.005]],[[247.564,143.126],[-0.447,0.038],[1.114,-0.094]],[[250.902,142.779],[-1.112,0.123],[2.561,-0.285]],[[258.455,141.277],[-2.473,0.712],[1.079,-0.311]],[[261.64,140.163],[-1.061,0.375],[0.455,-0.16]],[[263,139.677],[-0.433,0.204],[0.929,-0.437]],[[265.76,138.312],[-0.947,0.387],[2.025,-0.828]],[[271.19,134.853],[-1.605,1.476],[0.235,-0.214]],[[271.978,134.315],[-0.288,0.058],[0.657,-0.131]],[[273.088,133.196],[-0.384,0.354],[0.553,-0.509]],[[273.043,131.715],[0.148,0.499],[-0.078,-0.265]],[[273.001,130.864],[0.055,0.276],[-0.356,-1.779]],[[271.9,125.535],[0.375,1.774],[-0.124,-0.592]],[[271.485,123.77],[0.171,0.579],[-0.38,-1.29]],[[270.296,119.914],[0.396,1.285],[-0.265,-0.857]],[[269.509,117.34],[0.27,0.856],[-0.231,-0.731]],[[268.78,115.157],[0.279,0.714],[-0.437,-1.119]],[[267.374,111.839],[0.558,1.059],[-0.512,-0.974]],[[265.559,109.061],[0.606,0.926],[-0.118,-0.182]],[[265.285,108.465],[0.064,0.207],[-0.255,-0.821]],[[264.049,106.281],[0.585,0.533],[-0.602,-0.548]],[[262.717,104.452],[0.423,0.622],[-0.197,-0.289]],[[262.033,103.649],[0.228,0.268],[-0.831,-0.973]],[[259.538,100.735],[0.861,0.944],[-1.857,-2.038]],[[253.395,95.302],[2.3,1.497],[-0.413,0.209]],[[252.248,95.884],[0.359,-0.201],[-1.63,0.913]],[[247.114,98.042],[1.796,-0.499],[-0.615,0.171]],[[245.299,98.605],[0.612,-0.14],[-1.118,0.257]],[[241.904,99.198],[1.12,-0.252],[-2.712,0.611]],[[233.75,99.344],[2.712,0.182],[-1.551,-0.104]],[[229.149,98.408],[1.486,0.472],[-1.423,-0.452]],[[225.026,96.593],[1.368,0.622],[-0.345,-0.157]],[[223.95,96.048],[0.398,0.202],[-0.812,0.738]],[[221.68,98.123],[0.708,-0.69],[-0.459,0.447]],[[220.396,99.562],[0.424,-0.484],[-0.656,0.748]],[[218.419,101.794],[0.721,-0.678],[-0.755,0.71]],[[216.611,104.22],[0.752,-0.7],[-0.14,0.13]],[[216.43,104.837],[-0.064,-0.162],[0.189,0.476]],[[216.169,106.005],[0.188,-0.352],[-0.59,1.102]],[[214.355,109.288],[0.6,-1.097],[-1.289,2.349]],[[211.481,116.723],[0.784,-2.542],[-0.423,1.373]],[[210.504,120.934],[0.329,-1.404],[-0.11,0.467]],[[210.11,122.322],[0.086,-0.471],[-0.512,2.804]],[[208.624,130.742],[0.454,-2.814],[-0.209,1.289]]],&quot;closed&quot;:true,&quot;fillColor&quot;:[0,0,0,1],&quot;fillRule&quot;:&quot;evenodd&quot;}]}" fill="#ffffff" fill-rule="evenodd" stroke-width="0.5"/><path d="M213.733,142.84c-0.062,0.732 -0.708,0.901 -1.208,1.009c-0.289,0.062 -0.724,-0.309 -1.016,-0.572c-0.291,-0.263 -0.291,-0.949 -0.095,-1.237c0.19,-0.281 0.712,-0.283 1.203,-0.139c0.534,0.156 0.867,0.481 1.116,0.939z" fill="#30419a" fill-rule="evenodd" stroke-width="1"/><path d="M231.211,146.514c0.226,1.057 0.117,1.501 -0.401,1.733c-0.517,0.23 -1.174,0.155 -1.417,-0.163c-0.278,-0.364 -0.251,-1.093 0.057,-1.514c0.34,-0.464 0.784,-0.484 1.761,-0.056z" fill="#30419a" fill-rule="evenodd" stroke-width="1"/><path d="M253.537,147.738c0.238,-0.536 0.454,-1.019 0.69,-1.551c0.695,0.28 1.471,0.23 1.636,1.094c0.081,0.426 -0.301,1.027 -0.793,1.217c-0.702,0.27 -1.035,-0.29 -1.533,-0.76z" fill="#30419a" fill-rule="evenodd" stroke-width="1"/><path d="M271.852,141.857c-0.084,0.258 -0.162,0.465 -0.218,0.678c-0.111,0.426 -0.238,0.772 -0.816,0.714c-0.748,-0.076 -1.001,-0.208 -1.182,-0.745c-0.123,-0.364 -0.181,-0.764 0.197,-0.934c0.378,-0.169 0.835,-0.237 1.251,-0.217c0.236,0.012 0.459,0.29 0.768,0.504z" fill="#30419a" fill-rule="evenodd" stroke-width="1"/><g stroke-width="1"><path d="M242.567,107.005l3.983,1.197l5,2.797l3.6,4.088l1.2,5.239l-1.2,7.633l-4.9,4.191l-8.4,1.497l-5,-1.896l-5.527,-4.69l-2.123,-5.089v-5.787l1.061,-4.391l3.989,-3.791l8.317,-0.998" fill="#ef463c" fill-rule="evenodd"/><path d="M242.961,112.394l2.989,0.698l3.1,2.794l1.9,4.145v3.738l-2,2.395l-5.989,1.397l-5.311,-1.696l-2.7,-4.191v-5.089l2.7,-3.493l5.311,-0.698" fill="#ffffff" fill-rule="evenodd"/><path d="M240.99,105.908c1.604,0.25 3.164,0.345 4.634,0.76c1.838,0.518 3.623,1.21 5.18,2.428c1.087,0.851 2.163,1.705 3.169,2.648c0.616,0.578 1.013,1.286 1.419,2.031c0.793,1.459 1.273,2.993 1.637,4.593c0.183,0.798 0.208,1.568 0.139,2.38c-0.084,0.99 0.005,1.992 -0.006,2.989c-0.018,1.738 -0.468,3.403 -1.288,4.899c-0.822,1.497 -2.053,2.696 -3.582,3.535c-0.88,0.483 -1.736,1.024 -2.654,1.416c-0.99,0.421 -1.991,0.823 -3.116,0.873c-1.084,0.047 -2.16,0.277 -3.239,0.425c-0.159,0.022 -0.33,0.08 -0.476,0.045c-1.723,-0.424 -3.584,-0.557 -5.048,-1.618c-1.05,-0.761 -2.301,-1.148 -3.281,-1.972c-1.224,-1.029 -2.449,-2.064 -3.303,-3.458c-0.482,-0.788 -0.995,-1.567 -1.576,-2.283c-0.898,-1.106 -1.2,-2.45 -1.652,-3.739c-0.02,-0.057 -0.02,-0.13 -0.005,-0.189c0.311,-1.238 -0.096,-2.492 0.069,-3.723c0.149,-1.104 0.402,-2.197 0.665,-3.282c0.249,-1.025 0.616,-2.023 0.841,-3.052c0.121,-0.551 0.346,-0.983 0.705,-1.404c0.372,-0.436 0.602,-0.998 0.994,-1.411c0.82,-0.86 1.768,-1.672 2.95,-1.834c0.862,-0.118 1.668,-0.41 2.518,-0.521c1.457,-0.191 2.915,-0.363 4.306,-0.536zM255.51,121.864c0.182,-1.948 -0.247,-3.826 -0.818,-5.624c-0.393,-1.243 -0.969,-2.513 -2.096,-3.364c-0.204,-0.154 -0.474,-0.234 -0.648,-0.412c-0.987,-1.007 -2.062,-1.886 -3.368,-2.46c-0.872,-0.383 -1.68,-0.886 -2.668,-1.02c-1.07,-0.144 -2.117,-0.453 -3.18,-0.662c-0.469,-0.093 -0.957,-0.189 -1.429,-0.162c-1.847,0.108 -3.663,0.577 -5.531,0.465c-0.112,-0.007 -0.232,0.085 -0.346,0.136c-0.32,0.141 -0.633,0.299 -0.958,0.426c-1.659,0.646 -2.961,1.629 -3.373,3.48c-0.062,0.279 -0.178,0.545 -0.248,0.823c-0.255,1.017 -0.479,2.042 -0.757,3.053c-0.271,0.991 -0.296,2.008 -0.43,3.014c-0.144,1.084 -0.103,2.121 0.323,3.097c0.511,1.172 1.074,2.333 1.747,3.417c0.481,0.774 1.119,1.482 1.801,2.093c0.803,0.72 1.715,1.322 2.602,1.944c1.392,0.975 2.797,1.933 4.56,2.13c0.216,0.024 0.414,0.179 0.631,0.236c0.3,0.08 0.61,0.178 0.915,0.172c0.602,-0.013 1.211,-0.177 1.804,-0.126c1.689,0.145 3.224,-0.387 4.701,-1.06c1.094,-0.498 2.138,-1.13 3.137,-1.801c0.928,-0.624 2.046,-1.116 2.313,-2.396c0.005,-0.027 0.043,-0.046 0.064,-0.071c0.553,-0.622 0.803,-1.359 0.881,-2.18c0.1,-1.052 0.245,-2.099 0.371,-3.148z" fill="#30419a" fill-rule="nonzero"/><path d="M244.03,129.065c-1.54,-0.096 -2.756,-0.184 -3.869,-0.778c-0.141,-0.075 -0.294,-0.154 -0.45,-0.174c-1.136,-0.148 -2.124,-0.77 -2.813,-1.524c-1.003,-1.098 -2.292,-1.976 -2.71,-3.627c-0.441,-1.741 -0.605,-3.404 -0.303,-5.178c0.245,-1.442 0.674,-2.779 1.372,-4.051c0.367,-0.669 0.834,-1.19 1.595,-1.422c0.303,-0.092 0.569,-0.298 0.859,-0.436c0.23,-0.111 0.474,-0.29 0.706,-0.281c0.766,0.032 1.446,-0.262 2.153,-0.464c0.212,-0.061 0.436,-0.106 0.656,-0.118c1.892,-0.106 3.608,0.448 5.196,1.434c0.653,0.405 1.271,0.864 1.907,1.298c1.263,0.861 2.056,2.098 2.717,3.43c0.693,1.397 1.141,2.872 1.145,4.44c0.004,1.656 -0.482,3.155 -1.615,4.407c-0.276,0.305 -0.535,0.625 -0.819,0.922c-0.776,0.812 -1.682,1.374 -2.838,1.48c-0.349,0.033 -0.689,0.16 -1.035,0.237c-0.713,0.157 -1.427,0.311 -1.854,0.405zM250.487,121.678c-0.076,-0.822 -0.016,-1.596 -0.244,-2.273c-0.261,-0.772 -0.737,-1.484 -1.195,-2.171c-0.386,-0.581 -0.815,-1.168 -1.345,-1.609c-0.633,-0.525 -1.37,-0.94 -2.101,-1.33c-1.254,-0.668 -2.563,-1.181 -4.035,-0.984c-0.603,0.081 -1.238,0.077 -1.797,0.278c-0.365,0.13 -0.689,0.26 -1.088,0.276c-0.667,0.025 -1.211,0.345 -1.666,0.846c-0.933,1.025 -1.376,2.256 -1.613,3.591c-0.24,1.351 -0.108,2.667 0.37,3.941c0.676,1.798 2.054,2.948 3.743,3.706c0.92,0.413 1.936,0.615 2.912,0.899c0.114,0.033 0.256,-0.042 0.379,-0.026c0.846,0.115 1.626,-0.163 2.438,-0.328c1.396,-0.285 2.665,-0.681 3.754,-1.709c0.962,-0.909 1.362,-1.961 1.488,-3.107z" fill="#30419a" fill-rule="nonzero"/></g></g><g stroke-width="1"><g><path d="M219.076,217.865l-0.337,10.34l0.563,2.957l0.975,1.609l1.087,1.46l0.863,2.132l0.637,2.732l-0.563,3.517l-0.675,1.011l-1.913,0.748l0.788,0.486l1.087,1.647l0.337,2.844l-0.75,3.555l-2.625,2.881h-4.013l-3.037,-0.936l-3,-2.132l-3.45,0.785l-3.375,-0.935l-2.513,-2.507c0,0 0,-3.816 0,-3.929c0,-0.112 2.663,-4.453 2.663,-4.453l6.037,-5.314l3.713,-5.5l1.875,-3.618l1.7,-3.891l3.1,-5.089z" fill="#ffffff" fill-rule="evenodd"/><path d="M208.056,253.661c-1.04,0.93 -2.3,0.809 -3.487,0.513c-1.308,-0.325 -2.594,-0.799 -3.825,-1.352c-2.086,-0.935 -3.234,-3.542 -2.689,-5.764c0.576,-2.353 1.735,-4.366 3.475,-6.04c0.86,-0.826 1.767,-1.605 2.676,-2.379c2.239,-1.906 4.353,-3.884 5.882,-6.472c1.351,-2.287 2.516,-4.637 3.507,-7.092c0.553,-1.373 1.129,-2.752 1.86,-4.034c0.823,-1.443 1.477,-2.966 2.292,-4.409c0.219,-0.386 0.351,-0.823 0.529,-1.234c0.076,-0.176 0.143,-0.364 0.258,-0.513c0.228,-0.296 0.515,-0.498 0.919,-0.345c0.375,0.142 0.592,0.432 0.553,0.82c-0.138,1.402 -0.305,2.8 -0.465,4.2c-0.095,0.829 -0.254,1.655 -0.282,2.486c-0.047,1.418 0.049,2.842 -0.028,4.258c-0.106,1.943 0.744,3.641 1.264,5.424c0.084,0.286 0.369,0.52 0.579,0.762c0.981,1.128 1.888,2.308 2.275,3.781c0.187,0.709 0.321,1.45 0.34,2.181c0.029,1.092 -0.034,2.19 -0.111,3.281c-0.1,1.416 -0.739,2.456 -2.188,2.806c-0.012,0.108 -0.049,0.193 -0.023,0.222c0.98,1.06 1.337,2.321 1.271,3.739c-0.033,0.708 -0.004,1.419 -0.009,2.129c-0.021,2.673 -1.377,4.567 -3.543,5.96c-0.756,0.487 -1.642,0.607 -2.519,0.554c-2.088,-0.126 -4.091,-0.63 -5.913,-1.671c-0.888,-0.507 -1.687,-1.169 -2.598,-1.811zM217.691,221.254c-0.477,0.827 -0.834,1.457 -1.201,2.081c-1.342,2.277 -2.727,4.53 -4.019,6.835c-1.273,2.274 -2.287,4.707 -4.051,6.675c-0.836,0.932 -1.742,1.807 -2.668,2.649c-1.024,0.932 -2.155,1.748 -3.155,2.703c-1.325,1.265 -2.252,2.782 -2.82,4.556c-0.457,1.423 -0.382,2.672 0.637,3.781c0.361,0.392 0.795,0.78 1.275,0.989c0.972,0.426 1.992,0.747 3.004,1.073c0.362,0.116 0.759,0.156 1.142,0.165c1.124,0.028 1.868,-0.666 1.967,-1.798c0.022,-0.256 -0.003,-0.52 0.049,-0.769c0.087,-0.406 0.486,-0.714 0.839,-0.654c0.384,0.064 0.659,0.289 0.7,0.694c0.035,0.352 0.074,0.717 0.016,1.061c-0.182,1.078 0.322,1.783 1.178,2.323c0.191,0.12 0.378,0.247 0.576,0.356c1.343,0.731 2.755,1.301 4.278,1.461c0.851,0.088 1.836,0.201 2.566,-0.127c1.667,-0.75 2.787,-2.117 2.983,-3.999c0.126,-1.212 0.066,-2.449 0.031,-3.673c-0.024,-0.814 -0.393,-1.49 -1.093,-1.948c-0.459,-0.299 -0.914,-0.61 -1.399,-0.859c-0.407,-0.209 -0.739,-0.436 -0.647,-0.943c0.094,-0.52 0.492,-0.6 0.949,-0.626c0.644,-0.036 1.29,-0.086 1.925,-0.194c0.83,-0.142 1.153,-0.429 1.215,-1.269c0.099,-1.346 0.201,-2.71 0.086,-4.048c-0.072,-0.833 -0.457,-1.677 -0.86,-2.431c-0.375,-0.7 -0.97,-1.28 -1.448,-1.928c-0.285,-0.387 -0.631,-0.768 -0.778,-1.209c-0.708,-2.136 -1.497,-4.25 -1.297,-6.586c0.116,-1.361 0.02,-2.744 0.02,-4.341z" fill="#30419a" fill-rule="nonzero"/></g><g><path d="M269.737,205.193l4.276,3.966l5.024,4.94l4.35,2.058l4.688,0.299l3.488,0.674l2.062,1.384l1.462,1.871l0.3,1.909l-0.862,3.33l-2.925,0.524l0.675,2.582l-0.15,3.255l-3.45,1.609l-4.575,-0.673l-1.8,-1.684l-1.2,2.881l-2.55,1.347l-4.387,0.824l-2.926,-1.871l-1.312,-4.229v-6.137l1.838,-4.266l0.374,-2.469l-0.074,-2.582l-0.6,-3.405l-2.176,-5.575l0.45,-0.562" fill="#ffffff" fill-rule="evenodd"/><path d="M293.066,227.118c0.104,0.993 0.221,2.041 0.319,3.091c0.098,1.053 -0.466,1.921 -0.85,2.833c-0.067,0.162 -0.33,0.272 -0.526,0.346c-0.359,0.138 -0.774,0.163 -1.095,0.353c-1.047,0.619 -2.25,0.845 -3.36,0.732c-1.646,-0.168 -3.488,0.024 -4.781,-1.599c-0.225,0.391 -0.409,0.679 -0.562,0.982c-0.474,0.939 -1.19,1.578 -2.207,1.903c-1.565,0.5 -3.103,1.056 -4.771,1.192c-1.972,0.163 -3.351,-0.583 -4.535,-2.168c-1.368,-1.833 -1.667,-3.868 -1.717,-6.017c-0.03,-1.257 -0.072,-2.52 0.012,-3.772c0.051,-0.788 0.25,-1.588 0.516,-2.336c0.367,-1.03 0.84,-2.024 1.305,-3.016c0.724,-1.549 0.764,-3.187 0.608,-4.828c-0.107,-1.119 -0.367,-2.224 -0.589,-3.329c-0.076,-0.375 -0.213,-0.746 -0.378,-1.093c-0.975,-2.062 -1.966,-4.119 -2.955,-6.175c-0.166,-0.346 -0.214,-0.689 0.053,-0.994c0.3,-0.344 0.697,-0.321 1.069,-0.156c0.586,0.262 1.155,0.562 1.729,0.849c0.057,0.028 0.114,0.068 0.152,0.117c1.648,2.099 3.694,3.841 5.346,5.935c1.011,1.28 2.264,2.284 3.58,3.226c0.313,0.223 0.635,0.461 0.874,0.756c0.922,1.135 2.122,1.603 3.556,1.634c1.743,0.038 3.49,0.061 5.226,0.203c2.504,0.203 4.668,1.132 6.291,3.154c0.621,0.775 0.893,1.63 0.929,2.583c0.026,0.709 -0.011,1.42 0.012,2.129c0.022,0.688 -0.222,1.263 -0.681,1.754c-0.309,0.329 -0.604,0.695 -0.976,0.936c-0.468,0.303 -1.007,0.497 -1.594,0.775zM292.01,224.81c0.272,0.613 0.81,0.565 1.32,0.473c0.566,-0.102 1.416,-1.174 1.438,-1.785c0.021,-0.611 0.019,-1.226 -0.013,-1.838c-0.039,-0.76 -0.3,-1.426 -0.834,-2.007c-1.442,-1.567 -3.277,-2.234 -5.34,-2.352c-1.675,-0.095 -3.354,-0.114 -5.031,-0.169c-1.734,-0.056 -3.193,-0.694 -4.331,-2.024c-0.166,-0.194 -0.347,-0.39 -0.559,-0.53c-1.68,-1.119 -3.134,-2.471 -4.397,-4.049c-0.745,-0.93 -1.589,-1.783 -2.424,-2.636c-0.415,-0.426 -0.912,-0.772 -1.301,-1.096c0.004,0.013 0.04,0.159 0.097,0.297c0.233,0.566 0.54,1.11 0.695,1.696c0.475,1.8 0.921,3.605 1.432,5.397c0.566,1.984 0.46,4.084 -0.482,6.042c-0.488,1.017 -0.944,2.053 -1.352,3.104c-0.195,0.501 -0.326,1.055 -0.344,1.59c-0.045,1.353 -0.011,2.709 -0.009,4.066c0.002,1.88 0.36,3.625 1.615,5.14c0.667,0.805 1.362,1.282 2.45,1.275c1.523,-0.009 2.898,-0.566 4.332,-0.933c1.257,-0.321 1.914,-1.139 2.245,-2.287c0.158,-0.55 0.197,-1.136 0.275,-1.709c0.031,-0.223 0.006,-0.452 0.035,-0.675c0.058,-0.445 0.319,-0.71 0.774,-0.708c0.45,0.002 0.711,0.274 0.788,0.707c0.035,0.188 0.008,0.387 0.035,0.578c0.158,1.085 1.361,2.248 2.441,2.282c1.324,0.042 2.661,0.118 3.975,-0.006c1.468,-0.139 1.902,-0.539 1.909,-2.001c0.003,-0.581 -0.031,-1.164 0.009,-1.742c0.056,-0.796 -0.113,-1.398 -0.868,-1.866c-0.798,-0.495 -0.675,-1.171 0.187,-1.605c0.374,-0.187 0.744,-0.379 1.233,-0.629z" fill="#30419a" fill-rule="nonzero"/></g><g fill="#000000" fill-rule="evenodd" font-family="&quot;Helvetica Neue&quot;, Helvetica, Arial, sans-serif" font-weight="400" font-size="16" text-anchor="start"/><g><path d="M180.95,262.968l0.813,0.898v1.696l-1.774,0.998l-1.539,-0.399v-2.095l1.1,-1.098h1.4" fill="#ffffff" fill-rule="evenodd"/><path d="M179.775,262.508c2.06,0 3.298,1.929 2.53,3.706c-0.113,0.263 -0.227,0.528 -0.362,0.78c-0.34,0.637 -0.822,1.057 -1.601,1.036c-0.641,-0.017 -1.277,0.037 -1.835,-0.415c-0.972,-0.787 -1.339,-2.22 -0.844,-3.487c0.023,-0.059 0.059,-0.115 0.079,-0.176c0.357,-1.041 1.011,-1.632 2.033,-1.444zM179.476,264.182c-0.406,0.744 -0.544,1.502 -0.311,1.834c0.305,0.436 0.738,0.429 1.179,0.305c0.441,-0.69 0.753,-1.364 0.08,-2.139c-0.292,0 -0.631,0 -0.948,0z" fill="#30419a" fill-rule="nonzero"/></g></g></g></g></svg>